SplineFontDB: 3.2
FontName: Untitled1
FullName: Untitled1
FamilyName: Untitled1
Weight: Regular
Copyright: Copyright (c) 2020, Thomas Hjelm
UComments: "2020-7-25: Created with FontForge (http://fontforge.org)"
Version: 001.000
ItalicAngle: 0
UnderlinePosition: -51
UnderlineWidth: 24
Ascent: 512
Descent: 0
InvalidEm: 0
LayerCount: 2
Layer: 0 0 "Back" 1
Layer: 1 0 "Fore" 0
XUID: [1021 89 -336038520 9901991]
OS2Version: 0
OS2_WeightWidthSlopeOnly: 0
OS2_UseTypoMetrics: 1
CreationTime: 1595713037
ModificationTime: 1596365371
OS2TypoAscent: 0
OS2TypoAOffset: 1
OS2TypoDescent: 0
OS2TypoDOffset: 1
OS2TypoLinegap: 0
OS2WinAscent: 0
OS2WinAOffset: 1
OS2WinDescent: 0
OS2WinDOffset: 1
HheadAscent: 0
HheadAOffset: 1
HheadDescent: 0
HheadDOffset: 1
OS2Vendor: 'PfEd'
MarkAttachClasses: 1
DEI: 91125
Encoding: ISO8859-1
UnicodeInterp: none
NameList: AGL For New Fonts
DisplaySize: -96
AntiAlias: 1
FitToEm: 0
WinInfo: 0 15 6
BeginPrivate: 0
EndPrivate
BeginChars: 256 76

StartChar: four
Encoding: 52 52 0
Width: 260
VWidth: 260
Flags: HW
LayerCount: 2
UndoRedoHistory
Layer: 0
Undoes
UndoOperation
Index: 0
Type: 1
WasModified: 1
WasOrder2: 0
Layer: 2
Width: 209
VWidth: 209
LBearingChange: 0
UnicodeEnc: 0
InstructionsLength: 0
EndUndoOperation
UndoOperation
Index: 1
Type: 1
WasModified: 0
WasOrder2: 0
Layer: 2
Width: 512
VWidth: 512
LBearingChange: 0
UnicodeEnc: 0
InstructionsLength: 0
EndUndoOperation
EndUndoes
Redoes
EndRedoes
EndUndoRedoHistory
UndoRedoHistory
Layer: 1
Undoes
UndoOperation
Index: 0
Type: 3
WasModified: 1
WasOrder2: 0
Layer: 2
EndUndoOperation
UndoOperation
Index: 1
Type: 3
WasModified: 0
WasOrder2: 0
Layer: 2
EndUndoOperation
EndUndoes
Redoes
EndRedoes
EndUndoRedoHistory
Fore
SplineSet
224 56 m 5
 206 56 l 5
 206 39 l 5
 224 39 l 5
 224 56 l 5
190 56 m 5
 39 56 l 5
 39 39 l 5
 190 39 l 5
 190 56 l 5
206 72 m 5
 224 72 l 5
 224 222 l 5
 206 222 l 5
 206 72 l 5
39 72 m 5
 190 72 l 5
 190 222 l 5
 39 222 l 5
 39 72 l 5
22 239 m 5
 240 239 l 5
 240 22 l 5
 22 22 l 5
 22 239 l 5
EndSplineSet
EndChar

StartChar: five
Encoding: 53 53 1
Width: 260
VWidth: 260
Flags: HW
LayerCount: 2
UndoRedoHistory
Layer: 0
Undoes
UndoOperation
Index: 0
Type: 1
WasModified: 1
WasOrder2: 0
Layer: 2
Width: 209
VWidth: 209
LBearingChange: 0
UnicodeEnc: 0
InstructionsLength: 0
EndUndoOperation
UndoOperation
Index: 1
Type: 1
WasModified: 0
WasOrder2: 0
Layer: 2
Width: 512
VWidth: 512
LBearingChange: 0
UnicodeEnc: 0
InstructionsLength: 0
EndUndoOperation
EndUndoes
Redoes
EndRedoes
EndUndoRedoHistory
UndoRedoHistory
Layer: 1
Undoes
UndoOperation
Index: 0
Type: 3
WasModified: 1
WasOrder2: 0
Layer: 2
EndUndoOperation
UndoOperation
Index: 1
Type: 3
WasModified: 0
WasOrder2: 0
Layer: 2
EndUndoOperation
EndUndoes
Redoes
EndRedoes
EndUndoRedoHistory
Fore
SplineSet
192 96 m 5
 192 165 l 5
 105 165 l 5
 105 96 l 5
 192 96 l 5
192 196 m 6
 196 196 199 194 201 192 c 132
 203 190 205 188 205 184 c 6
 205 96 l 6
 205 92 203 89 201 87 c 132
 199 85 196 84 192 84 c 6
 105 84 l 6
 101 84 98 85 96 87 c 132
 94 89 92 92 92 96 c 6
 92 184 l 6
 92 188 94 190 96 192 c 132
 98 194 101 196 105 196 c 6
 111 196 l 5
 111 209 l 5
 124 209 l 5
 124 196 l 5
 174 196 l 5
 174 209 l 5
 186 209 l 5
 186 196 l 5
 192 196 l 6
177 146 m 5
 140 109 l 5
 120 129 l 5
 126 135 l 5
 140 122 l 5
 170 152 l 5
 177 146 l 5
192 96 m 5
 192 165 l 5
 105 165 l 5
 105 96 l 5
 192 96 l 5
192 196 m 6
 196 196 199 194 201 192 c 132
 203 190 205 188 205 184 c 6
 205 96 l 6
 205 92 203 89 201 87 c 132
 199 85 196 84 192 84 c 6
 105 84 l 6
 101 84 98 85 96 87 c 132
 94 89 92 92 92 96 c 6
 92 184 l 6
 92 188 94 190 96 192 c 132
 98 194 101 196 105 196 c 6
 111 196 l 5
 111 209 l 5
 124 209 l 5
 124 196 l 5
 174 196 l 5
 174 209 l 5
 186 209 l 5
 186 196 l 5
 192 196 l 6
177 146 m 5
 140 109 l 5
 120 129 l 5
 126 135 l 5
 140 122 l 5
 170 152 l 5
 177 146 l 5
57 37 m 1
 57 55 l 1
 40 55 l 1
 40 37 l 1
 57 37 l 1
57 71 m 1
 57 222 l 1
 40 222 l 1
 40 71 l 1
 57 71 l 1
74 55 m 1
 74 37 l 1
 222 37 l 1
 222 55 l 1
 74 55 l 1
74 222 m 1
 74 71 l 1
 222 71 l 1
 222 222 l 1
 74 222 l 1
239 239 m 1
 239 21 l 1
 22 21 l 1
 22 239 l 1
 239 239 l 1
EndSplineSet
EndChar

StartChar: six
Encoding: 54 54 2
Width: 260
VWidth: 260
Flags: HW
LayerCount: 2
UndoRedoHistory
Layer: 0
Undoes
UndoOperation
Index: 0
Type: 1
WasModified: 1
WasOrder2: 0
Layer: 2
Width: 209
VWidth: 209
LBearingChange: 0
UnicodeEnc: 0
InstructionsLength: 0
EndUndoOperation
UndoOperation
Index: 1
Type: 1
WasModified: 0
WasOrder2: 0
Layer: 2
Width: 512
VWidth: 512
LBearingChange: 0
UnicodeEnc: 0
InstructionsLength: 0
EndUndoOperation
EndUndoes
Redoes
EndRedoes
EndUndoRedoHistory
UndoRedoHistory
Layer: 1
Undoes
UndoOperation
Index: 0
Type: 3
WasModified: 1
WasOrder2: 0
Layer: 2
EndUndoOperation
UndoOperation
Index: 1
Type: 3
WasModified: 0
WasOrder2: 0
Layer: 2
EndUndoOperation
EndUndoes
Redoes
EndRedoes
EndUndoRedoHistory
Fore
SplineSet
170 166 m 5
 194 166 l 5
 194 152 l 5
 99 152 l 5
 99 166 l 5
 122 166 l 5
 130 172 l 5
 164 172 l 5
 170 166 l 5
119 131 m 5
 119 64 l 5
 174 64 l 5
 174 131 l 5
 119 131 l 5
105 64 m 6
 105 145 l 5
 187 145 l 5
 187 64 l 6
 187 60 186 56 184 54 c 132
 182 52 178 50 174 50 c 6
 119 50 l 6
 115 50 112 52 110 54 c 132
 108 56 105 60 105 64 c 6
39 204 m 1
 56 204 l 1
 56 221 l 1
 39 221 l 1
 39 204 l 1
72 204 m 1
 224 204 l 1
 224 221 l 1
 72 221 l 1
 72 204 l 1
56 187 m 1
 39 187 l 1
 39 37 l 1
 56 37 l 1
 56 187 l 1
224 187 m 1
 72 187 l 1
 72 37 l 1
 224 37 l 1
 224 187 l 1
240 21 m 1
 22 21 l 1
 22 237 l 1
 240 237 l 1
 240 21 l 1
EndSplineSet
EndChar

StartChar: seven
Encoding: 55 55 3
Width: 260
VWidth: 260
Flags: HW
LayerCount: 2
UndoRedoHistory
Layer: 0
Undoes
UndoOperation
Index: 0
Type: 1
WasModified: 1
WasOrder2: 0
Layer: 2
Width: 209
VWidth: 209
LBearingChange: 0
UnicodeEnc: 0
InstructionsLength: 0
EndUndoOperation
UndoOperation
Index: 1
Type: 1
WasModified: 0
WasOrder2: 0
Layer: 2
Width: 512
VWidth: 512
LBearingChange: 0
UnicodeEnc: 0
InstructionsLength: 0
EndUndoOperation
EndUndoes
Redoes
EndRedoes
EndUndoRedoHistory
UndoRedoHistory
Layer: 1
Undoes
UndoOperation
Index: 0
Type: 3
WasModified: 1
WasOrder2: 0
Layer: 2
EndUndoOperation
UndoOperation
Index: 1
Type: 3
WasModified: 0
WasOrder2: 0
Layer: 2
EndUndoOperation
EndUndoes
Redoes
EndRedoes
EndUndoRedoHistory
Fore
SplineSet
69 160 m 5
 69 74 l 5
 117 74 l 5
 117 61 l 5
 69 61 l 6
 65 61 62 63 60 65 c 132
 58 67 56 70 56 74 c 6
 56 160 l 6
 56 164 58 167 60 169 c 132
 62 171 65 172 69 172 c 6
 117 172 l 5
 117 160 l 5
 69 160 l 5
149 147 m 5
 180 116 l 5
 149 86 l 5
 140 95 l 5
 156 110 l 5
 94 110 l 5
 94 122 l 5
 156 122 l 5
 140 139 l 5
 149 147 l 5
205 222 m 1
 205 205 l 1
 222 205 l 1
 222 222 l 1
 205 222 l 1
205 189 m 1
 205 37 l 1
 222 37 l 1
 222 189 l 1
 205 189 l 1
189 205 m 1
 189 222 l 1
 40 222 l 1
 40 205 l 1
 189 205 l 1
189 37 m 1
 189 189 l 1
 40 189 l 1
 40 37 l 1
 189 37 l 1
22 21 m 1
 22 239 l 1
 239 239 l 1
 239 21 l 1
 22 21 l 1
EndSplineSet
EndChar

StartChar: eight
Encoding: 56 56 4
Width: 260
VWidth: 260
Flags: HW
LayerCount: 2
UndoRedoHistory
Layer: 0
Undoes
UndoOperation
Index: 0
Type: 1
WasModified: 1
WasOrder2: 0
Layer: 2
Width: 209
VWidth: 209
LBearingChange: 0
UnicodeEnc: 0
InstructionsLength: 0
EndUndoOperation
UndoOperation
Index: 1
Type: 1
WasModified: 0
WasOrder2: 0
Layer: 2
Width: 512
VWidth: 512
LBearingChange: 0
UnicodeEnc: 0
InstructionsLength: 0
EndUndoOperation
EndUndoes
Redoes
EndRedoes
EndUndoRedoHistory
UndoRedoHistory
Layer: 1
Undoes
UndoOperation
Index: 0
Type: 3
WasModified: 1
WasOrder2: 0
Layer: 2
EndUndoOperation
UndoOperation
Index: 1
Type: 3
WasModified: 0
WasOrder2: 0
Layer: 2
EndUndoOperation
EndUndoes
Redoes
EndRedoes
EndUndoRedoHistory
Fore
SplineSet
137 125 m 4
 135 125 132 123 130 121 c 132
 128 119 127 116 127 114 c 4
 127 112 128 108 130 106 c 132
 132 104 135 104 137 104 c 4
 139 104 143 104 145 106 c 132
 147 108 149 112 149 114 c 4
 149 116 147 119 145 121 c 132
 143 123 139 125 137 125 c 4
160 114 m 4
 160 113 160 113 160 112 c 132
 160 111 160 111 160 111 c 6
 166 106 l 6
 166 106 166 106 166 105 c 6
 161 94 l 6
 161 93 160 94 159 94 c 6
 151 96 l 5
 150 95 147 95 146 94 c 5
 145 85 l 6
 145 84 145 84 144 84 c 6
 131 84 l 6
 130 84 130 84 130 85 c 6
 129 94 l 5
 128 95 125 95 124 96 c 5
 116 94 l 6
 115 94 115 93 115 94 c 6
 109 105 l 6
 109 106 108 106 109 106 c 6
 115 111 l 6
 115 112 l 132
 115 114 l 260
 115 116 l 132
 115 117 l 6
 109 122 l 6
 108 122 109 123 109 124 c 6
 115 135 l 6
 115 136 115 135 116 135 c 6
 124 132 l 5
 125 133 128 134 129 135 c 5
 130 142 l 6
 130 143 130 144 131 144 c 6
 144 144 l 6
 145 144 145 143 145 142 c 6
 146 135 l 5
 147 134 150 133 151 132 c 5
 159 135 l 6
 160 135 161 136 161 135 c 6
 166 124 l 6
 166 123 167 122 166 122 c 6
 160 117 l 6
 160 117 160 115 160 114 c 4
179 172 m 0
 177 172 173 171 171 169 c 128
 169 167 167 163 167 161 c 0
 167 159 169 156 171 154 c 128
 173 152 177 150 179 150 c 0
 181 150 184 152 186 154 c 128
 188 156 190 159 190 161 c 0
 190 163 188 167 186 169 c 128
 184 171 181 172 179 172 c 0
201 161 m 0
 201 160 201 161 201 160 c 128
 201 159 201 159 201 159 c 2
 207 154 l 2
 207 154 207 152 207 151 c 2
 201 141 l 2
 201 140 201 140 200 140 c 2
 192 144 l 1
 191 143 188 142 187 141 c 1
 186 132 l 2
 186 131 186 131 185 131 c 2
 172 131 l 2
 171 131 171 131 171 132 c 2
 170 141 l 1
 169 142 166 143 165 144 c 1
 157 140 l 2
 156 140 156 140 156 141 c 2
 150 151 l 2
 150 152 149 154 150 154 c 2
 156 159 l 2
 156 160 l 128
 156 161 l 256
 156 162 l 128
 156 164 l 2
 150 169 l 2
 149 169 150 170 150 171 c 2
 156 181 l 2
 156 182 156 182 157 182 c 2
 165 179 l 1
 166 180 169 181 170 182 c 1
 171 190 l 2
 171 191 171 191 172 191 c 2
 185 191 l 2
 186 191 186 191 186 190 c 2
 187 182 l 1
 188 181 191 180 192 179 c 1
 200 182 l 2
 201 182 201 182 201 181 c 2
 207 171 l 2
 207 170 208 169 207 169 c 2
 201 164 l 2
 201 164 201 162 201 161 c 0
116 187 m 0
 112 187 109 186 107 184 c 128
 105 182 104 179 104 175 c 0
 104 171 105 167 107 165 c 128
 109 163 112 161 116 161 c 0
 120 161 123 163 125 165 c 128
 127 167 129 171 129 175 c 0
 129 179 127 182 125 184 c 128
 123 186 120 187 116 187 c 0
142 175 m 0
 142 174 142 173 142 172 c 128
 142 171 142 171 142 171 c 2
 150 165 l 2
 150 165 150 163 150 162 c 2
 144 150 l 2
 144 149 142 150 141 150 c 2
 132 154 l 1
 131 153 128 151 126 150 c 1
 125 140 l 2
 125 139 123 139 122 139 c 2
 109 139 l 2
 108 139 107 139 107 140 c 2
 106 150 l 1
 104 151 102 153 100 154 c 1
 91 150 l 2
 90 150 89 149 89 150 c 2
 81 162 l 2
 81 163 81 165 82 165 c 2
 90 171 l 2
 90 171 90 171 90 172 c 128
 90 173 89 175 89 175 c 256
 90 176 l 128
 90 177 l 2
 82 184 l 2
 81 184 80 185 81 186 c 2
 89 199 l 2
 89 200 90 199 91 199 c 2
 100 195 l 1
 102 196 104 198 106 199 c 1
 107 209 l 2
 107 210 108 210 109 210 c 2
 122 210 l 2
 123 210 125 210 125 209 c 2
 126 199 l 1
 128 198 130 196 132 195 c 1
 141 199 l 2
 142 199 144 200 144 199 c 2
 150 186 l 2
 151 185 151 184 150 184 c 2
 142 177 l 2
 142 177 142 176 142 175 c 0
142 230 m 0
 132 230 123 228 114 224 c 128
 105 220 97 215 90 209 c 128
 83 203 76 194 72 185 c 128
 68 176 67 166 66 156 c 1
 45 129 l 2
 44 127 43 126 44 124 c 128
 45 122 48 120 50 120 c 2
 66 120 l 1
 66 87 l 2
 66 81 68 76 72 72 c 128
 76 68 81 66 87 66 c 2
 99 66 l 1
 99 32 l 1
 175 32 l 1
 175 84 l 1
 187 90 197 99 206 111 c 128
 215 123 219 139 219 154 c 0
 219 164 216 173 212 182 c 128
 208 191 203 200 196 207 c 128
 189 214 181 220 172 224 c 128
 163 228 152 230 142 230 c 0
EndSplineSet
EndChar

StartChar: nine
Encoding: 57 57 5
Width: 260
VWidth: 260
Flags: HW
LayerCount: 2
UndoRedoHistory
Layer: 0
Undoes
UndoOperation
Index: 0
Type: 1
WasModified: 1
WasOrder2: 0
Layer: 2
Width: 209
VWidth: 209
LBearingChange: 0
UnicodeEnc: 0
InstructionsLength: 0
EndUndoOperation
UndoOperation
Index: 1
Type: 1
WasModified: 0
WasOrder2: 0
Layer: 2
Width: 512
VWidth: 512
LBearingChange: 0
UnicodeEnc: 0
InstructionsLength: 0
EndUndoOperation
EndUndoes
Redoes
EndRedoes
EndUndoRedoHistory
UndoRedoHistory
Layer: 1
Undoes
UndoOperation
Index: 0
Type: 3
WasModified: 1
WasOrder2: 0
Layer: 2
EndUndoOperation
UndoOperation
Index: 1
Type: 3
WasModified: 0
WasOrder2: 0
Layer: 2
EndUndoOperation
EndUndoes
Redoes
EndRedoes
EndUndoRedoHistory
Fore
SplineSet
132 145 m 5
 164 114 l 5
 132 82 l 5
 124 91 l 5
 140 107 l 5
 76 107 l 5
 76 120 l 5
 140 120 l 5
 124 136 l 5
 132 145 l 5
205 222 m 1
 205 205 l 1
 222 205 l 1
 222 222 l 1
 205 222 l 1
205 189 m 1
 205 37 l 1
 222 37 l 1
 222 189 l 1
 205 189 l 1
189 205 m 1
 189 222 l 1
 40 222 l 1
 40 205 l 1
 189 205 l 1
189 37 m 1
 189 189 l 1
 40 189 l 1
 40 37 l 1
 189 37 l 1
22 21 m 1
 22 239 l 1
 239 239 l 1
 239 21 l 1
 22 21 l 1
EndSplineSet
EndChar

StartChar: colon
Encoding: 58 58 6
Width: 260
VWidth: 260
Flags: HW
LayerCount: 2
UndoRedoHistory
Layer: 0
Undoes
UndoOperation
Index: 0
Type: 1
WasModified: 1
WasOrder2: 0
Layer: 2
Width: 209
VWidth: 209
LBearingChange: 0
UnicodeEnc: 0
InstructionsLength: 0
EndUndoOperation
UndoOperation
Index: 1
Type: 1
WasModified: 0
WasOrder2: 0
Layer: 2
Width: 512
VWidth: 512
LBearingChange: 0
UnicodeEnc: 0
InstructionsLength: 0
EndUndoOperation
EndUndoes
Redoes
EndRedoes
EndUndoRedoHistory
UndoRedoHistory
Layer: 1
Undoes
UndoOperation
Index: 0
Type: 3
WasModified: 1
WasOrder2: 0
Layer: 2
EndUndoOperation
UndoOperation
Index: 1
Type: 3
WasModified: 0
WasOrder2: 0
Layer: 2
EndUndoOperation
EndUndoes
Redoes
EndRedoes
EndUndoRedoHistory
Fore
SplineSet
150 166 m 5
 150 140 l 5
 171 127 l 5
 167 121 l 5
 142 136 l 5
 142 166 l 5
 150 166 l 5
147 101 m 132
 158 101 168 107 175 114 c 132
 182 121 186 130 186 141 c 132
 186 152 182 162 175 169 c 132
 168 176 158 181 147 181 c 132
 136 181 127 176 120 169 c 132
 113 162 109 152 109 141 c 132
 109 130 113 121 120 114 c 132
 127 107 136 101 147 101 c 132
147 191 m 132
 161 191 171 186 181 176 c 132
 191 166 196 155 196 141 c 132
 196 127 191 116 181 106 c 132
 171 96 161 92 147 92 c 132
 133 92 122 96 112 106 c 132
 102 116 99 127 99 141 c 132
 99 155 102 166 112 176 c 132
 122 186 133 191 147 191 c 132
57 37 m 1
 57 55 l 1
 40 55 l 1
 40 37 l 1
 57 37 l 1
57 71 m 1
 57 222 l 1
 40 222 l 1
 40 71 l 1
 57 71 l 1
74 55 m 1
 74 37 l 1
 222 37 l 1
 222 55 l 1
 74 55 l 1
74 222 m 1
 74 71 l 1
 222 71 l 1
 222 222 l 1
 74 222 l 1
239 239 m 1
 239 21 l 1
 22 21 l 1
 22 239 l 1
 239 239 l 1
EndSplineSet
EndChar

StartChar: less
Encoding: 60 60 8
Width: 260
VWidth: 260
Flags: HW
LayerCount: 2
UndoRedoHistory
Layer: 0
Undoes
UndoOperation
Index: 0
Type: 1
WasModified: 1
WasOrder2: 0
Layer: 2
Width: 209
VWidth: 209
LBearingChange: 0
UnicodeEnc: 0
InstructionsLength: 0
EndUndoOperation
UndoOperation
Index: 1
Type: 1
WasModified: 0
WasOrder2: 0
Layer: 2
Width: 512
VWidth: 512
LBearingChange: 0
UnicodeEnc: 0
InstructionsLength: 0
EndUndoOperation
EndUndoes
Redoes
EndRedoes
EndUndoRedoHistory
UndoRedoHistory
Layer: 1
Undoes
UndoOperation
Index: 0
Type: 3
WasModified: 1
WasOrder2: 0
Layer: 2
EndUndoOperation
UndoOperation
Index: 1
Type: 3
WasModified: 0
WasOrder2: 0
Layer: 2
EndUndoOperation
EndUndoes
Redoes
EndRedoes
EndUndoRedoHistory
Fore
SplineSet
97 76 m 5
 76 78 60 86 49 100 c 132
 38 114 29 128 25 147 c 5
 41 125 65 115 97 115 c 5
 97 141 l 5
 142 95 l 5
 97 50 l 5
 97 76 l 5
EndSplineSet
EndChar

StartChar: greater
Encoding: 62 62 9
Width: 260
VWidth: 260
Flags: HW
LayerCount: 2
UndoRedoHistory
Layer: 0
Undoes
UndoOperation
Index: 0
Type: 1
WasModified: 1
WasOrder2: 0
Layer: 2
Width: 209
VWidth: 209
LBearingChange: 0
UnicodeEnc: 0
InstructionsLength: 0
EndUndoOperation
UndoOperation
Index: 1
Type: 1
WasModified: 0
WasOrder2: 0
Layer: 2
Width: 512
VWidth: 512
LBearingChange: 0
UnicodeEnc: 0
InstructionsLength: 0
EndUndoOperation
EndUndoes
Redoes
EndRedoes
EndUndoRedoHistory
UndoRedoHistory
Layer: 1
Undoes
UndoOperation
Index: 0
Type: 3
WasModified: 1
WasOrder2: 0
Layer: 2
EndUndoOperation
UndoOperation
Index: 1
Type: 3
WasModified: 0
WasOrder2: 0
Layer: 2
EndUndoOperation
EndUndoes
Redoes
EndRedoes
EndUndoRedoHistory
Fore
SplineSet
44 186 m 1
 219 186 l 1
 219 164 l 1
 44 164 l 1
 44 186 l 1
44 120 m 1
 219 120 l 1
 219 142 l 1
 44 142 l 1
 44 120 l 1
44 76 m 1
 120 76 l 1
 120 99 l 1
 44 99 l 1
 44 76 l 1
44 32 m 1
 120 32 l 1
 120 55 l 1
 44 55 l 1
 44 32 l 1
169 64 m 1
 154 80 l 1
 137 64 l 1
 169 32 l 1
 219 82 l 1
 202 99 l 1
 169 64 l 1
44 230 m 1
 44 207 l 1
 219 207 l 1
 219 230 l 1
 44 230 l 1
EndSplineSet
EndChar

StartChar: question
Encoding: 63 63 10
Width: 260
VWidth: 260
Flags: HW
LayerCount: 2
UndoRedoHistory
Layer: 0
Undoes
UndoOperation
Index: 0
Type: 1
WasModified: 1
WasOrder2: 0
Layer: 2
Width: 209
VWidth: 209
LBearingChange: 0
UnicodeEnc: 0
InstructionsLength: 0
EndUndoOperation
UndoOperation
Index: 1
Type: 1
WasModified: 0
WasOrder2: 0
Layer: 2
Width: 512
VWidth: 512
LBearingChange: 0
UnicodeEnc: 0
InstructionsLength: 0
EndUndoOperation
EndUndoes
Redoes
EndRedoes
EndUndoRedoHistory
UndoRedoHistory
Layer: 1
Undoes
UndoOperation
Index: 0
Type: 3
WasModified: 1
WasOrder2: 0
Layer: 2
EndUndoOperation
UndoOperation
Index: 1
Type: 3
WasModified: 0
WasOrder2: 0
Layer: 2
EndUndoOperation
EndUndoes
Redoes
EndRedoes
EndUndoRedoHistory
Fore
SplineSet
99 -6 m 1
 175 -6 l 1
 175 16 l 1
 99 16 l 1
 99 -6 l 1
44 120 m 1
 219 120 l 1
 219 142 l 1
 44 142 l 1
 44 120 l 1
99 76 m 1
 219 76 l 5
 219 99 l 5
 99 99 l 1
 99 76 l 1
99 32 m 1
 175 32 l 1
 175 55 l 1
 99 55 l 1
 99 32 l 1
EndSplineSet
EndChar

StartChar: at
Encoding: 64 64 11
Width: 260
VWidth: 260
Flags: HW
LayerCount: 2
UndoRedoHistory
Layer: 0
Undoes
UndoOperation
Index: 0
Type: 1
WasModified: 1
WasOrder2: 0
Layer: 2
Width: 209
VWidth: 209
LBearingChange: 0
UnicodeEnc: 0
InstructionsLength: 0
EndUndoOperation
UndoOperation
Index: 1
Type: 1
WasModified: 0
WasOrder2: 0
Layer: 2
Width: 512
VWidth: 512
LBearingChange: 0
UnicodeEnc: 0
InstructionsLength: 0
EndUndoOperation
EndUndoes
Redoes
EndRedoes
EndUndoRedoHistory
UndoRedoHistory
Layer: 1
Undoes
UndoOperation
Index: 0
Type: 3
WasModified: 1
WasOrder2: 0
Layer: 2
EndUndoOperation
UndoOperation
Index: 1
Type: 3
WasModified: 0
WasOrder2: 0
Layer: 2
EndUndoOperation
EndUndoes
Redoes
EndRedoes
EndUndoRedoHistory
Fore
SplineSet
120 120 m 1
 120 142 l 1
 230 142 l 1
 230 120 l 1
 120 120 l 1
120 164 m 1
 120 186 l 1
 230 186 l 1
 230 164 l 1
 120 164 l 1
32 230 m 1
 230 230 l 1
 230 207 l 1
 32 207 l 1
 32 230 l 1
120 76 m 1
 120 99 l 1
 230 99 l 1
 230 76 l 1
 120 76 l 1
32 175 m 1
 76 131 l 1
 32 87 l 1
 32 175 l 1
32 32 m 1
 32 55 l 1
 230 55 l 1
 230 32 l 1
 32 32 l 1
EndSplineSet
EndChar

StartChar: uni009C
Encoding: 156 156 12
Width: 260
VWidth: 260
Flags: HW
LayerCount: 2
UndoRedoHistory
Layer: 0
Undoes
UndoOperation
Index: 0
Type: 1
WasModified: 1
WasOrder2: 0
Layer: 2
Width: 209
VWidth: 209
LBearingChange: 0
UnicodeEnc: 0
InstructionsLength: 0
EndUndoOperation
UndoOperation
Index: 1
Type: 1
WasModified: 0
WasOrder2: 0
Layer: 2
Width: 512
VWidth: 512
LBearingChange: 0
UnicodeEnc: 0
InstructionsLength: 0
EndUndoOperation
EndUndoes
Redoes
EndRedoes
EndUndoRedoHistory
UndoRedoHistory
Layer: 1
Undoes
UndoOperation
Index: 0
Type: 3
WasModified: 1
WasOrder2: 0
Layer: 2
EndUndoOperation
UndoOperation
Index: 1
Type: 3
WasModified: 0
WasOrder2: 0
Layer: 2
EndUndoOperation
EndUndoes
Redoes
EndRedoes
EndUndoRedoHistory
Fore
SplineSet
196 219 m 1
 196 186 l 1
 120 186 l 1
 175 131 l 1
 120 76 l 1
 196 76 l 1
 196 44 l 1
 65 44 l 1
 65 65 l 1
 136 131 l 1
 65 196 l 1
 65 219 l 1
 196 219 l 1
EndSplineSet
EndChar

StartChar: uni009D
Encoding: 157 157 13
Width: 260
VWidth: 260
Flags: HW
LayerCount: 2
UndoRedoHistory
Layer: 0
Undoes
UndoOperation
Index: 0
Type: 1
WasModified: 1
WasOrder2: 0
Layer: 2
Width: 209
VWidth: 209
LBearingChange: 0
UnicodeEnc: 0
InstructionsLength: 0
EndUndoOperation
UndoOperation
Index: 1
Type: 1
WasModified: 0
WasOrder2: 0
Layer: 2
Width: 512
VWidth: 512
LBearingChange: 0
UnicodeEnc: 0
InstructionsLength: 0
EndUndoOperation
EndUndoes
Redoes
EndRedoes
EndUndoRedoHistory
UndoRedoHistory
Layer: 1
Undoes
UndoOperation
Index: 0
Type: 3
WasModified: 1
WasOrder2: 0
Layer: 2
EndUndoOperation
UndoOperation
Index: 1
Type: 3
WasModified: 0
WasOrder2: 0
Layer: 2
EndUndoOperation
EndUndoes
Redoes
EndRedoes
EndUndoRedoHistory
Fore
SplineSet
146 189 m 5
 146 167 l 5
 97 167 l 5
 132 131 l 5
 97 96 l 5
 146 96 l 5
 146 75 l 5
 61 75 l 5
 61 89 l 5
 107 131 l 5
 61 174 l 5
 61 189 l 5
 146 189 l 5
EndSplineSet
EndChar

StartChar: uni009E
Encoding: 158 158 14
Width: 260
VWidth: 260
Flags: HW
LayerCount: 2
UndoRedoHistory
Layer: 0
Undoes
UndoOperation
Index: 0
Type: 1
WasModified: 1
WasOrder2: 0
Layer: 2
Width: 209
VWidth: 209
LBearingChange: 0
UnicodeEnc: 0
InstructionsLength: 0
EndUndoOperation
UndoOperation
Index: 1
Type: 1
WasModified: 0
WasOrder2: 0
Layer: 2
Width: 512
VWidth: 512
LBearingChange: 0
UnicodeEnc: 0
InstructionsLength: 0
EndUndoOperation
EndUndoes
Redoes
EndRedoes
EndUndoRedoHistory
UndoRedoHistory
Layer: 1
Undoes
UndoOperation
Index: 0
Type: 3
WasModified: 1
WasOrder2: 0
Layer: 2
EndUndoOperation
UndoOperation
Index: 1
Type: 3
WasModified: 0
WasOrder2: 0
Layer: 2
EndUndoOperation
EndUndoes
Redoes
EndRedoes
EndUndoRedoHistory
Fore
SplineSet
207 230 m 2
 213 230 217 227 222 222 c 128
 227 217 230 213 230 207 c 2
 230 164 l 1
 207 164 l 1
 207 207 l 1
 164 207 l 1
 164 230 l 1
 207 230 l 2
207 55 m 1
 207 99 l 1
 230 99 l 1
 230 55 l 2
 230 49 227 45 222 40 c 128
 217 35 213 32 207 32 c 2
 164 32 l 1
 164 55 l 1
 207 55 l 1
55 99 m 1
 55 55 l 1
 99 55 l 1
 99 32 l 1
 55 32 l 2
 49 32 45 35 40 40 c 128
 35 45 32 49 32 55 c 2
 32 99 l 1
 55 99 l 1
32 207 m 2
 32 213 35 217 40 222 c 128
 45 227 49 230 55 230 c 2
 99 230 l 1
 99 207 l 1
 55 207 l 1
 55 164 l 1
 32 164 l 1
 32 207 l 2
EndSplineSet
EndChar

StartChar: uni009F
Encoding: 159 159 15
Width: 260
VWidth: 260
Flags: HW
LayerCount: 2
UndoRedoHistory
Layer: 0
Undoes
UndoOperation
Index: 0
Type: 1
WasModified: 1
WasOrder2: 0
Layer: 2
Width: 209
VWidth: 209
LBearingChange: 0
UnicodeEnc: 0
InstructionsLength: 0
EndUndoOperation
UndoOperation
Index: 1
Type: 1
WasModified: 0
WasOrder2: 0
Layer: 2
Width: 512
VWidth: 512
LBearingChange: 0
UnicodeEnc: 0
InstructionsLength: 0
EndUndoOperation
EndUndoes
Redoes
EndRedoes
EndUndoRedoHistory
UndoRedoHistory
Layer: 1
Undoes
UndoOperation
Index: 0
Type: 3
WasModified: 1
WasOrder2: 0
Layer: 2
EndUndoOperation
UndoOperation
Index: 1
Type: 3
WasModified: 0
WasOrder2: 0
Layer: 2
EndUndoOperation
EndUndoes
Redoes
EndRedoes
EndUndoRedoHistory
Fore
SplineSet
154 207 m 1
 207 207 l 1
 207 154 l 1
 186 154 l 1
 186 186 l 1
 154 186 l 1
 154 207 l 1
186 76 m 1
 186 109 l 1
 207 109 l 1
 207 55 l 1
 154 55 l 1
 154 76 l 1
 186 76 l 1
55 154 m 1
 55 207 l 1
 109 207 l 1
 109 186 l 1
 76 186 l 1
 76 154 l 1
 55 154 l 1
76 109 m 1
 76 76 l 1
 109 76 l 1
 109 55 l 1
 55 55 l 1
 55 109 l 1
 76 109 l 1
EndSplineSet
EndChar

StartChar: uni00A0
Encoding: 160 160 16
Width: 260
VWidth: 260
Flags: HW
LayerCount: 2
UndoRedoHistory
Layer: 0
Undoes
UndoOperation
Index: 0
Type: 1
WasModified: 1
WasOrder2: 0
Layer: 2
Width: 209
VWidth: 209
LBearingChange: 0
UnicodeEnc: 0
InstructionsLength: 0
EndUndoOperation
UndoOperation
Index: 1
Type: 1
WasModified: 0
WasOrder2: 0
Layer: 2
Width: 512
VWidth: 512
LBearingChange: 0
UnicodeEnc: 0
InstructionsLength: 0
EndUndoOperation
EndUndoes
Redoes
EndRedoes
EndUndoRedoHistory
UndoRedoHistory
Layer: 1
Undoes
UndoOperation
Index: 0
Type: 3
WasModified: 1
WasOrder2: 0
Layer: 2
EndUndoOperation
UndoOperation
Index: 1
Type: 3
WasModified: 0
WasOrder2: 0
Layer: 2
EndUndoOperation
EndUndoes
Redoes
EndRedoes
EndUndoRedoHistory
Fore
SplineSet
44 207 m 1
 44 55 l 1
 131 55 l 1
 131 32 l 1
 44 32 l 2
 38 32 33 35 29 40 c 128
 25 45 22 49 22 55 c 2
 22 207 l 2
 22 213 25 217 29 222 c 128
 33 227 38 230 44 230 c 2
 131 230 l 1
 131 207 l 1
 44 207 l 1
186 186 m 1
 240 131 l 1
 186 76 l 1
 171 92 l 1
 199 120 l 1
 87 120 l 1
 87 142 l 1
 199 142 l 1
 171 171 l 1
 186 186 l 1
EndSplineSet
EndChar

StartChar: exclamdown
Encoding: 161 161 17
Width: 260
VWidth: 260
Flags: HW
LayerCount: 2
UndoRedoHistory
Layer: 0
Undoes
UndoOperation
Index: 0
Type: 1
WasModified: 1
WasOrder2: 0
Layer: 2
Width: 209
VWidth: 209
LBearingChange: 0
UnicodeEnc: 0
InstructionsLength: 0
EndUndoOperation
UndoOperation
Index: 1
Type: 1
WasModified: 0
WasOrder2: 0
Layer: 2
Width: 512
VWidth: 512
LBearingChange: 0
UnicodeEnc: 0
InstructionsLength: 0
EndUndoOperation
EndUndoes
Redoes
EndRedoes
EndUndoRedoHistory
UndoRedoHistory
Layer: 1
Undoes
UndoOperation
Index: 0
Type: 3
WasModified: 1
WasOrder2: 0
Layer: 2
EndUndoOperation
UndoOperation
Index: 1
Type: 3
WasModified: 0
WasOrder2: 0
Layer: 2
EndUndoOperation
EndUndoes
Redoes
EndRedoes
EndUndoRedoHistory
Fore
SplineSet
186 22 m 1
 186 44 l 1
 219 44 l 1
 219 76 l 1
 240 76 l 1
 240 39 l 2
 240 34 239 31 235 27 c 128
 231 23 229 22 224 22 c 2
 186 22 l 1
76 22 m 1
 39 22 l 2
 34 22 31 23 27 27 c 128
 23 31 22 34 22 39 c 2
 22 76 l 1
 44 76 l 1
 44 44 l 1
 76 44 l 1
 76 22 l 1
186 240 m 1
 224 240 l 2
 229 240 231 239 235 235 c 128
 239 231 240 229 240 224 c 2
 240 186 l 1
 219 186 l 1
 219 219 l 1
 186 219 l 1
 186 240 l 1
76 240 m 1
 76 219 l 1
 44 219 l 1
 44 186 l 1
 22 186 l 1
 22 224 l 2
 22 229 23 231 27 235 c 128
 31 239 34 240 39 240 c 2
 76 240 l 1
142 74 m 1
 186 99 l 1
 186 149 l 1
 142 124 l 1
 142 74 l 1
131 142 m 1
 175 167 l 1
 131 194 l 1
 87 167 l 1
 131 142 l 1
76 99 m 1
 120 74 l 1
 120 124 l 1
 76 149 l 1
 76 99 l 1
199 180 m 2
 204 176 207 171 207 165 c 2
 207 96 l 2
 207 90 204 85 199 81 c 2
 140 46 l 2
 135 42 127 42 122 46 c 2
 62 81 l 2
 57 85 55 90 55 96 c 2
 55 165 l 2
 55 171 57 176 62 180 c 2
 122 214 l 2
 124 215 129 216 131 216 c 128
 133 216 138 215 140 214 c 2
 199 180 l 2
EndSplineSet
EndChar

StartChar: cent
Encoding: 162 162 18
Width: 260
VWidth: 260
Flags: HW
LayerCount: 2
UndoRedoHistory
Layer: 0
Undoes
UndoOperation
Index: 0
Type: 1
WasModified: 1
WasOrder2: 0
Layer: 2
Width: 209
VWidth: 209
LBearingChange: 0
UnicodeEnc: 0
InstructionsLength: 0
EndUndoOperation
UndoOperation
Index: 1
Type: 1
WasModified: 0
WasOrder2: 0
Layer: 2
Width: 512
VWidth: 512
LBearingChange: 0
UnicodeEnc: 0
InstructionsLength: 0
EndUndoOperation
EndUndoes
Redoes
EndRedoes
EndUndoRedoHistory
UndoRedoHistory
Layer: 1
Undoes
UndoOperation
Index: 0
Type: 3
WasModified: 1
WasOrder2: 0
Layer: 2
EndUndoOperation
UndoOperation
Index: 1
Type: 3
WasModified: 0
WasOrder2: 0
Layer: 2
EndUndoOperation
EndUndoes
Redoes
EndRedoes
EndUndoRedoHistory
Fore
SplineSet
207 55 m 1
 207 175 l 1
 55 175 l 1
 55 55 l 1
 207 55 l 1
207 230 m 2
 213 230 217 227 222 222 c 128
 227 217 230 213 230 207 c 2
 230 55 l 2
 230 49 227 45 222 40 c 128
 217 35 213 32 207 32 c 2
 55 32 l 2
 49 32 43 35 39 39 c 128
 35 43 32 49 32 55 c 2
 32 207 l 2
 32 213 35 217 39 222 c 128
 43 227 49 230 55 230 c 2
 65 230 l 1
 65 251 l 1
 87 251 l 1
 87 230 l 1
 175 230 l 1
 175 251 l 1
 196 251 l 1
 196 230 l 1
 207 230 l 2
181 141 m 5
 116 76 l 5
 81 111 l 5
 92 122 l 5
 116 100 l 5
 169 154 l 5
 181 141 l 5
207 55 m 1
 207 175 l 1
 55 175 l 1
 55 55 l 1
 207 55 l 1
207 230 m 2
 213 230 217 227 222 222 c 128
 227 217 230 213 230 207 c 2
 230 55 l 2
 230 49 227 45 222 40 c 128
 217 35 213 32 207 32 c 2
 55 32 l 2
 49 32 43 35 39 39 c 128
 35 43 32 49 32 55 c 2
 32 207 l 2
 32 213 35 217 39 222 c 128
 43 227 49 230 55 230 c 2
 65 230 l 1
 65 251 l 1
 87 251 l 1
 87 230 l 1
 175 230 l 1
 175 251 l 1
 196 251 l 1
 196 230 l 1
 207 230 l 2
181 141 m 5
 116 76 l 5
 81 111 l 5
 92 122 l 5
 116 100 l 5
 169 154 l 5
 181 141 l 5
EndSplineSet
EndChar

StartChar: sterling
Encoding: 163 163 19
Width: 260
VWidth: 260
Flags: HW
LayerCount: 2
UndoRedoHistory
Layer: 0
Undoes
UndoOperation
Index: 0
Type: 1
WasModified: 1
WasOrder2: 0
Layer: 2
Width: 209
VWidth: 209
LBearingChange: 0
UnicodeEnc: 0
InstructionsLength: 0
EndUndoOperation
UndoOperation
Index: 1
Type: 1
WasModified: 0
WasOrder2: 0
Layer: 2
Width: 512
VWidth: 512
LBearingChange: 0
UnicodeEnc: 0
InstructionsLength: 0
EndUndoOperation
EndUndoes
Redoes
EndRedoes
EndUndoRedoHistory
UndoRedoHistory
Layer: 1
Undoes
UndoOperation
Index: 0
Type: 3
WasModified: 1
WasOrder2: 0
Layer: 2
EndUndoOperation
UndoOperation
Index: 1
Type: 3
WasModified: 0
WasOrder2: 0
Layer: 2
EndUndoOperation
EndUndoes
Redoes
EndRedoes
EndUndoRedoHistory
Fore
SplineSet
44 196 m 1
 44 44 l 1
 196 44 l 1
 196 22 l 1
 44 22 l 2
 38 22 33 25 29 29 c 128
 25 33 22 38 22 44 c 2
 22 196 l 1
 44 196 l 1
136 109 m 1
 207 181 l 1
 192 196 l 1
 136 140 l 1
 114 162 l 1
 99 147 l 1
 136 109 l 1
219 240 m 2
 225 240 230 238 234 234 c 128
 238 230 240 225 240 219 c 2
 240 87 l 2
 240 81 238 77 234 72 c 128
 230 67 225 65 219 65 c 2
 87 65 l 2
 81 65 77 67 72 72 c 128
 67 77 65 81 65 87 c 2
 65 219 l 2
 65 225 67 230 72 234 c 128
 77 238 81 240 87 240 c 2
 219 240 l 2
EndSplineSet
EndChar

StartChar: currency
Encoding: 164 164 20
Width: 260
VWidth: 260
Flags: HW
LayerCount: 2
UndoRedoHistory
Layer: 0
Undoes
UndoOperation
Index: 0
Type: 1
WasModified: 1
WasOrder2: 0
Layer: 2
Width: 209
VWidth: 209
LBearingChange: 0
UnicodeEnc: 0
InstructionsLength: 0
EndUndoOperation
UndoOperation
Index: 1
Type: 1
WasModified: 0
WasOrder2: 0
Layer: 2
Width: 512
VWidth: 512
LBearingChange: 0
UnicodeEnc: 0
InstructionsLength: 0
EndUndoOperation
EndUndoes
Redoes
EndRedoes
EndUndoRedoHistory
UndoRedoHistory
Layer: 1
Undoes
UndoOperation
Index: 0
Type: 3
WasModified: 1
WasOrder2: 0
Layer: 2
EndUndoOperation
UndoOperation
Index: 1
Type: 3
WasModified: 0
WasOrder2: 0
Layer: 2
EndUndoOperation
EndUndoes
Redoes
EndRedoes
EndUndoRedoHistory
Fore
SplineSet
44 207 m 1
 44 55 l 1
 131 55 l 1
 131 32 l 1
 44 32 l 2
 38 32 33 35 29 40 c 128
 25 45 22 49 22 55 c 2
 22 207 l 2
 22 213 25 217 29 222 c 128
 33 227 38 230 44 230 c 2
 131 230 l 1
 131 207 l 1
 44 207 l 1
186 186 m 5
 240 131 l 5
 186 76 l 5
 171 92 l 5
 199 120 l 5
 87 120 l 5
 87 142 l 5
 199 142 l 5
 171 171 l 5
 186 186 l 5
EndSplineSet
EndChar

StartChar: yen
Encoding: 165 165 21
Width: 260
VWidth: 260
Flags: HW
LayerCount: 2
UndoRedoHistory
Layer: 0
Undoes
UndoOperation
Index: 0
Type: 1
WasModified: 1
WasOrder2: 0
Layer: 2
Width: 209
VWidth: 209
LBearingChange: 0
UnicodeEnc: 0
InstructionsLength: 0
EndUndoOperation
UndoOperation
Index: 1
Type: 1
WasModified: 0
WasOrder2: 0
Layer: 2
Width: 512
VWidth: 512
LBearingChange: 0
UnicodeEnc: 0
InstructionsLength: 0
EndUndoOperation
EndUndoes
Redoes
EndRedoes
EndUndoRedoHistory
UndoRedoHistory
Layer: 1
Undoes
UndoOperation
Index: 0
Type: 3
WasModified: 1
WasOrder2: 0
Layer: 2
EndUndoOperation
UndoOperation
Index: 1
Type: 3
WasModified: 0
WasOrder2: 0
Layer: 2
EndUndoOperation
EndUndoes
Redoes
EndRedoes
EndUndoRedoHistory
Fore
SplineSet
196 120 m 1
 196 87 l 1
 230 87 l 1
 230 65 l 1
 196 65 l 1
 196 32 l 1
 175 32 l 1
 175 65 l 1
 142 65 l 1
 142 87 l 1
 175 87 l 1
 175 120 l 1
 196 120 l 1
32 120 m 1
 120 120 l 1
 120 32 l 1
 32 32 l 1
 32 120 l 1
142 230 m 1
 230 230 l 1
 230 142 l 1
 142 142 l 1
 142 230 l 1
32 230 m 1
 120 230 l 1
 120 142 l 1
 32 142 l 1
 32 230 l 1
EndSplineSet
EndChar

StartChar: brokenbar
Encoding: 166 166 22
Width: 260
VWidth: 260
Flags: HW
LayerCount: 2
UndoRedoHistory
Layer: 0
Undoes
UndoOperation
Index: 0
Type: 1
WasModified: 1
WasOrder2: 0
Layer: 2
Width: 209
VWidth: 209
LBearingChange: 0
UnicodeEnc: 0
InstructionsLength: 0
EndUndoOperation
UndoOperation
Index: 1
Type: 1
WasModified: 0
WasOrder2: 0
Layer: 2
Width: 512
VWidth: 512
LBearingChange: 0
UnicodeEnc: 0
InstructionsLength: 0
EndUndoOperation
EndUndoes
Redoes
EndRedoes
EndUndoRedoHistory
UndoRedoHistory
Layer: 1
Undoes
UndoOperation
Index: 0
Type: 3
WasModified: 1
WasOrder2: 0
Layer: 2
EndUndoOperation
UndoOperation
Index: 1
Type: 3
WasModified: 0
WasOrder2: 0
Layer: 2
EndUndoOperation
EndUndoes
Redoes
EndRedoes
EndUndoRedoHistory
Fore
SplineSet
207 55 m 1
 207 99 l 1
 164 99 l 1
 164 55 l 1
 207 55 l 1
142 120 m 1
 230 120 l 1
 230 32 l 1
 142 32 l 1
 142 120 l 1
207 164 m 1
 207 207 l 1
 164 207 l 1
 164 164 l 1
 207 164 l 1
142 230 m 1
 230 230 l 1
 230 142 l 1
 142 142 l 1
 142 230 l 1
99 55 m 1
 99 99 l 1
 55 99 l 1
 55 55 l 1
 99 55 l 1
32 120 m 1
 120 120 l 1
 120 32 l 1
 32 32 l 1
 32 120 l 1
99 164 m 1
 99 207 l 1
 55 207 l 1
 55 164 l 1
 99 164 l 1
32 230 m 1
 120 230 l 1
 120 142 l 1
 32 142 l 1
 32 230 l 1
EndSplineSet
EndChar

StartChar: section
Encoding: 167 167 23
Width: 260
VWidth: 260
Flags: HW
LayerCount: 2
UndoRedoHistory
Layer: 0
Undoes
UndoOperation
Index: 0
Type: 1
WasModified: 1
WasOrder2: 0
Layer: 2
Width: 209
VWidth: 209
LBearingChange: 0
UnicodeEnc: 0
InstructionsLength: 0
EndUndoOperation
UndoOperation
Index: 1
Type: 1
WasModified: 0
WasOrder2: 0
Layer: 2
Width: 512
VWidth: 512
LBearingChange: 0
UnicodeEnc: 0
InstructionsLength: 0
EndUndoOperation
EndUndoes
Redoes
EndRedoes
EndUndoRedoHistory
UndoRedoHistory
Layer: 1
Undoes
UndoOperation
Index: 0
Type: 3
WasModified: 1
WasOrder2: 0
Layer: 2
EndUndoOperation
UndoOperation
Index: 1
Type: 3
WasModified: 0
WasOrder2: 0
Layer: 2
EndUndoOperation
EndUndoes
Redoes
EndRedoes
EndUndoRedoHistory
Fore
SplineSet
177 85 m 1
 186 100 l 1
 136 129 l 1
 136 186 l 1
 120 186 l 1
 120 120 l 1
 177 85 l 1
131 240 m 128
 161 240 188 230 209 209 c 128
 230 188 240 161 240 131 c 128
 240 101 230 75 209 54 c 128
 188 33 161 22 131 22 c 128
 101 22 75 33 54 54 c 128
 33 75 22 101 22 131 c 128
 22 161 33 188 54 209 c 128
 75 230 101 240 131 240 c 128
EndSplineSet
EndChar

StartChar: dieresis
Encoding: 168 168 24
Width: 260
VWidth: 260
Flags: HW
LayerCount: 2
UndoRedoHistory
Layer: 0
Undoes
UndoOperation
Index: 0
Type: 1
WasModified: 1
WasOrder2: 0
Layer: 2
Width: 209
VWidth: 209
LBearingChange: 0
UnicodeEnc: 0
InstructionsLength: 0
EndUndoOperation
UndoOperation
Index: 1
Type: 1
WasModified: 0
WasOrder2: 0
Layer: 2
Width: 512
VWidth: 512
LBearingChange: 0
UnicodeEnc: 0
InstructionsLength: 0
EndUndoOperation
EndUndoes
Redoes
EndRedoes
EndUndoRedoHistory
UndoRedoHistory
Layer: 1
Undoes
UndoOperation
Index: 0
Type: 3
WasModified: 1
WasOrder2: 0
Layer: 2
EndUndoOperation
UndoOperation
Index: 1
Type: 3
WasModified: 0
WasOrder2: 0
Layer: 2
EndUndoOperation
EndUndoes
Redoes
EndRedoes
EndUndoRedoHistory
Fore
SplineSet
170 219 m 1
 207 219 l 1
 207 196 l 1
 55 196 l 1
 55 219 l 1
 92 219 l 1
 104 230 l 1
 159 230 l 1
 170 219 l 1
92 132 m 1
 116 109 l 1
 92 86 l 1
 109 71 l 1
 131 94 l 1
 154 71 l 1
 170 86 l 1
 146 109 l 1
 170 132 l 1
 154 147 l 1
 131 125 l 1
 109 147 l 1
 92 132 l 1
65 55 m 2
 65 186 l 1
 196 186 l 1
 196 55 l 2
 196 49 195 45 190 40 c 128
 185 35 181 32 175 32 c 2
 87 32 l 2
 81 32 77 35 72 40 c 128
 67 45 65 49 65 55 c 2
EndSplineSet
EndChar

StartChar: copyright
Encoding: 169 169 25
Width: 260
VWidth: 260
Flags: HW
LayerCount: 2
UndoRedoHistory
Layer: 0
Undoes
UndoOperation
Index: 0
Type: 1
WasModified: 1
WasOrder2: 0
Layer: 2
Width: 209
VWidth: 209
LBearingChange: 0
UnicodeEnc: 0
InstructionsLength: 0
EndUndoOperation
UndoOperation
Index: 1
Type: 1
WasModified: 0
WasOrder2: 0
Layer: 2
Width: 512
VWidth: 512
LBearingChange: 0
UnicodeEnc: 0
InstructionsLength: 0
EndUndoOperation
EndUndoes
Redoes
EndRedoes
EndUndoRedoHistory
UndoRedoHistory
Layer: 1
Undoes
UndoOperation
Index: 0
Type: 3
WasModified: 1
WasOrder2: 0
Layer: 2
EndUndoOperation
UndoOperation
Index: 1
Type: 3
WasModified: 0
WasOrder2: 0
Layer: 2
EndUndoOperation
EndUndoes
Redoes
EndRedoes
EndUndoRedoHistory
Fore
SplineSet
170 219 m 5
 207 219 l 5
 207 196 l 5
 55 196 l 5
 55 219 l 5
 92 219 l 5
 104 230 l 5
 159 230 l 5
 170 219 l 5
87 164 m 5
 87 55 l 5
 175 55 l 5
 175 164 l 5
 87 164 l 5
65 55 m 6
 65 186 l 5
 196 186 l 5
 196 55 l 6
 196 49 195 45 190 40 c 132
 185 35 181 32 175 32 c 6
 87 32 l 6
 81 32 77 35 72 40 c 132
 67 45 65 49 65 55 c 6
EndSplineSet
EndChar

StartChar: ordfeminine
Encoding: 170 170 26
Width: 260
VWidth: 260
Flags: HW
LayerCount: 2
UndoRedoHistory
Layer: 0
Undoes
UndoOperation
Index: 0
Type: 1
WasModified: 1
WasOrder2: 0
Layer: 2
Width: 209
VWidth: 209
LBearingChange: 0
UnicodeEnc: 0
InstructionsLength: 0
EndUndoOperation
UndoOperation
Index: 1
Type: 1
WasModified: 0
WasOrder2: 0
Layer: 2
Width: 512
VWidth: 512
LBearingChange: 0
UnicodeEnc: 0
InstructionsLength: 0
EndUndoOperation
EndUndoes
Redoes
EndRedoes
EndUndoRedoHistory
UndoRedoHistory
Layer: 1
Undoes
UndoOperation
Index: 0
Type: 3
WasModified: 1
WasOrder2: 0
Layer: 2
EndUndoOperation
UndoOperation
Index: 1
Type: 3
WasModified: 0
WasOrder2: 0
Layer: 2
EndUndoOperation
EndUndoes
Redoes
EndRedoes
EndUndoRedoHistory
Fore
SplineSet
219 32 m 1
 219 175 l 1
 44 175 l 1
 44 32 l 1
 219 32 l 1
219 230 m 2
 225 230 230 227 234 222 c 128
 238 217 240 213 240 207 c 2
 240 32 l 2
 240 26 238 22 234 17 c 128
 230 12 225 11 219 11 c 2
 44 11 l 2
 38 11 33 12 29 17 c 128
 25 22 22 26 22 32 c 2
 22 207 l 2
 22 213 25 217 29 222 c 128
 33 227 38 230 44 230 c 2
 55 230 l 1
 55 251 l 1
 76 251 l 1
 76 230 l 1
 186 230 l 1
 186 251 l 1
 207 251 l 1
 207 230 l 1
 219 230 l 2
EndSplineSet
EndChar

StartChar: guillemotleft
Encoding: 171 171 27
Width: 260
VWidth: 260
Flags: HW
LayerCount: 2
UndoRedoHistory
Layer: 0
Undoes
UndoOperation
Index: 0
Type: 1
WasModified: 1
WasOrder2: 0
Layer: 2
Width: 209
VWidth: 209
LBearingChange: 0
UnicodeEnc: 0
InstructionsLength: 0
EndUndoOperation
UndoOperation
Index: 1
Type: 1
WasModified: 0
WasOrder2: 0
Layer: 2
Width: 512
VWidth: 512
LBearingChange: 0
UnicodeEnc: 0
InstructionsLength: 0
EndUndoOperation
EndUndoes
Redoes
EndRedoes
EndUndoRedoHistory
UndoRedoHistory
Layer: 1
Undoes
UndoOperation
Index: 0
Type: 3
WasModified: 1
WasOrder2: 0
Layer: 2
EndUndoOperation
UndoOperation
Index: 1
Type: 3
WasModified: 0
WasOrder2: 0
Layer: 2
EndUndoOperation
EndUndoes
Redoes
EndRedoes
EndUndoRedoHistory
Fore
SplineSet
131 219 m 1
 240 44 l 1
 22 44 l 1
 131 219 l 1
131 177 m 1
 61 65 l 1
 201 65 l 1
 131 177 l 1
EndSplineSet
EndChar

StartChar: N
Encoding: 78 78 28
Width: 260
VWidth: 260
Flags: HW
LayerCount: 2
UndoRedoHistory
Layer: 0
Undoes
UndoOperation
Index: 0
Type: 1
WasModified: 1
WasOrder2: 0
Layer: 2
Width: 209
VWidth: 209
LBearingChange: 0
UnicodeEnc: 0
InstructionsLength: 0
EndUndoOperation
UndoOperation
Index: 1
Type: 1
WasModified: 0
WasOrder2: 0
Layer: 2
Width: 512
VWidth: 512
LBearingChange: 0
UnicodeEnc: 0
InstructionsLength: 0
EndUndoOperation
EndUndoes
Redoes
EndRedoes
EndUndoRedoHistory
UndoRedoHistory
Layer: 1
Undoes
UndoOperation
Index: 0
Type: 3
WasModified: 1
WasOrder2: 0
Layer: 2
EndUndoOperation
UndoOperation
Index: 1
Type: 3
WasModified: 0
WasOrder2: 0
Layer: 2
EndUndoOperation
EndUndoes
Redoes
EndRedoes
EndUndoRedoHistory
Fore
SplineSet
40 0 m 5
 24 16 l 5
 41 34 l 5
 -80 34 l 5
 -80 55 l 5
 41 55 l 5
 24 72 l 5
 40 87 l 5
 84 44 l 5
 40 0 l 5
-15 -44 m 6
 -135 -44 l 6
 -135 -42 -141 -38 -151 -37 c 132
 -152 -27 -155 -21 -157 -21 c 6
 -157 110 l 6
 -155 110 -152 115 -151 125 c 132
 -141 126 -135 129 -135 131 c 6
 -15 131 l 6
 -15 129 -10 126 0 125 c 132
 1 115 4 110 6 110 c 6
 6 77 l 5
 -15 77 l 5
 -15 110 l 5
 -135 110 l 5
 -135 -21 l 5
 -15 -21 l 5
 -15 11 l 5
 6 11 l 5
 6 -21 l 6
 4 -21 1 -27 0 -37 c 132
 -10 -38 -15 -42 -15 -44 c 6
EndSplineSet
EndChar

StartChar: O
Encoding: 79 79 29
Width: 260
VWidth: 260
Flags: HW
LayerCount: 2
UndoRedoHistory
Layer: 0
Undoes
UndoOperation
Index: 0
Type: 1
WasModified: 1
WasOrder2: 0
Layer: 2
Width: 209
VWidth: 209
LBearingChange: 0
UnicodeEnc: 0
InstructionsLength: 0
EndUndoOperation
UndoOperation
Index: 1
Type: 1
WasModified: 0
WasOrder2: 0
Layer: 2
Width: 512
VWidth: 512
LBearingChange: 0
UnicodeEnc: 0
InstructionsLength: 0
EndUndoOperation
EndUndoes
Redoes
EndRedoes
EndUndoRedoHistory
UndoRedoHistory
Layer: 1
Undoes
UndoOperation
Index: 0
Type: 3
WasModified: 1
WasOrder2: 0
Layer: 2
EndUndoOperation
UndoOperation
Index: 1
Type: 3
WasModified: 0
WasOrder2: 0
Layer: 2
EndUndoOperation
EndUndoes
Redoes
EndRedoes
EndUndoRedoHistory
Fore
SplineSet
175 207 m 1
 160 192 l 1
 142 210 l 1
 142 87 l 1
 120 87 l 1
 120 210 l 1
 102 192 l 1
 87 207 l 1
 131 251 l 1
 175 207 l 1
219 154 m 2
 219 32 l 2
 219 26 216 21 212 17 c 128
 208 13 202 11 196 11 c 2
 65 11 l 2
 59 11 54 13 50 17 c 128
 46 21 44 26 44 32 c 2
 44 154 l 2
 44 160 46 165 50 169 c 128
 54 173 59 175 65 175 c 2
 99 175 l 1
 99 154 l 1
 65 154 l 1
 65 32 l 1
 196 32 l 1
 196 154 l 1
 164 154 l 1
 164 175 l 1
 196 175 l 2
 202 175 208 173 212 169 c 128
 216 165 219 160 219 154 c 2
EndSplineSet
EndChar

StartChar: P
Encoding: 80 80 30
Width: 260
VWidth: 260
Flags: HW
LayerCount: 2
UndoRedoHistory
Layer: 0
Undoes
UndoOperation
Index: 0
Type: 1
WasModified: 1
WasOrder2: 0
Layer: 2
Width: 209
VWidth: 209
LBearingChange: 0
UnicodeEnc: 0
InstructionsLength: 0
EndUndoOperation
UndoOperation
Index: 1
Type: 1
WasModified: 0
WasOrder2: 0
Layer: 2
Width: 512
VWidth: 512
LBearingChange: 0
UnicodeEnc: 0
InstructionsLength: 0
EndUndoOperation
EndUndoes
Redoes
EndRedoes
EndUndoRedoHistory
UndoRedoHistory
Layer: 1
Undoes
UndoOperation
Index: 0
Type: 3
WasModified: 1
WasOrder2: 0
Layer: 2
EndUndoOperation
UndoOperation
Index: 1
Type: 3
WasModified: 0
WasOrder2: 0
Layer: 2
EndUndoOperation
EndUndoes
Redoes
EndRedoes
EndUndoRedoHistory
Fore
SplineSet
154 207 m 1
 207 207 l 1
 207 154 l 1
 186 154 l 1
 186 186 l 1
 154 186 l 1
 154 207 l 1
186 76 m 1
 186 109 l 1
 207 109 l 1
 207 55 l 1
 154 55 l 1
 154 76 l 1
 186 76 l 1
55 154 m 1
 55 207 l 1
 109 207 l 1
 109 177 l 1
 82 179 l 5
 85 154 l 1
 55 154 l 1
76 109 m 1
 76 76 l 1
 109 76 l 1
 109 55 l 1
 55 55 l 1
 55 109 l 1
 76 109 l 1
EndSplineSet
EndChar

StartChar: Q
Encoding: 81 81 31
Width: 260
VWidth: 260
Flags: HW
LayerCount: 2
UndoRedoHistory
Layer: 0
Undoes
UndoOperation
Index: 0
Type: 1
WasModified: 1
WasOrder2: 0
Layer: 2
Width: 209
VWidth: 209
LBearingChange: 0
UnicodeEnc: 0
InstructionsLength: 0
EndUndoOperation
UndoOperation
Index: 1
Type: 1
WasModified: 0
WasOrder2: 0
Layer: 2
Width: 512
VWidth: 512
LBearingChange: 0
UnicodeEnc: 0
InstructionsLength: 0
EndUndoOperation
EndUndoes
Redoes
EndRedoes
EndUndoRedoHistory
UndoRedoHistory
Layer: 1
Undoes
UndoOperation
Index: 0
Type: 3
WasModified: 1
WasOrder2: 0
Layer: 2
EndUndoOperation
UndoOperation
Index: 1
Type: 3
WasModified: 0
WasOrder2: 0
Layer: 2
EndUndoOperation
EndUndoes
Redoes
EndRedoes
EndUndoRedoHistory
Fore
SplineSet
142 109 m 5
 142 154 l 5
 120 154 l 5
 120 109 l 5
 142 109 l 5
142 65 m 5
 142 87 l 5
 120 87 l 5
 120 65 l 5
 142 65 l 5
11 32 m 5
 131 240 l 5
 251 32 l 5
 11 32 l 5
EndSplineSet
EndChar

StartChar: R
Encoding: 82 82 32
Width: 260
VWidth: 260
Flags: HW
LayerCount: 2
UndoRedoHistory
Layer: 0
Undoes
UndoOperation
Index: 0
Type: 1
WasModified: 1
WasOrder2: 0
Layer: 2
Width: 209
VWidth: 209
LBearingChange: 0
UnicodeEnc: 0
InstructionsLength: 0
EndUndoOperation
UndoOperation
Index: 1
Type: 1
WasModified: 0
WasOrder2: 0
Layer: 2
Width: 512
VWidth: 512
LBearingChange: 0
UnicodeEnc: 0
InstructionsLength: 0
EndUndoOperation
EndUndoes
Redoes
EndRedoes
EndUndoRedoHistory
UndoRedoHistory
Layer: 1
Undoes
UndoOperation
Index: 0
Type: 3
WasModified: 1
WasOrder2: 0
Layer: 2
EndUndoOperation
UndoOperation
Index: 1
Type: 3
WasModified: 0
WasOrder2: 0
Layer: 2
EndUndoOperation
EndUndoes
Redoes
EndRedoes
EndUndoRedoHistory
Fore
SplineSet
135 126 m 5
 135 144 l 5
 126 144 l 5
 126 126 l 5
 135 126 l 5
135 109 m 5
 135 117 l 5
 126 117 l 5
 126 109 l 5
 135 109 l 5
82 95 m 5
 131 179 l 5
 180 95 l 5
 82 95 l 5
154 207 m 1
 207 207 l 1
 207 154 l 1
 186 154 l 1
 186 186 l 1
 154 186 l 1
 154 207 l 1
186 76 m 1
 186 109 l 1
 207 109 l 1
 207 55 l 1
 154 55 l 1
 154 76 l 1
 186 76 l 1
55 154 m 1
 55 207 l 1
 109 207 l 1
 109 177 l 1
 82 179 l 1
 85 154 l 1
 55 154 l 1
76 109 m 1
 76 76 l 1
 109 76 l 1
 109 55 l 1
 55 55 l 1
 55 109 l 1
 76 109 l 1
EndSplineSet
EndChar

StartChar: S
Encoding: 83 83 33
Width: 260
VWidth: 260
Flags: HW
LayerCount: 2
UndoRedoHistory
Layer: 0
Undoes
UndoOperation
Index: 0
Type: 1
WasModified: 1
WasOrder2: 0
Layer: 2
Width: 209
VWidth: 209
LBearingChange: 0
UnicodeEnc: 0
InstructionsLength: 0
EndUndoOperation
UndoOperation
Index: 1
Type: 1
WasModified: 0
WasOrder2: 0
Layer: 2
Width: 512
VWidth: 512
LBearingChange: 0
UnicodeEnc: 0
InstructionsLength: 0
EndUndoOperation
EndUndoes
Redoes
EndRedoes
EndUndoRedoHistory
UndoRedoHistory
Layer: 1
Undoes
UndoOperation
Index: 0
Type: 3
WasModified: 1
WasOrder2: 0
Layer: 2
EndUndoOperation
UndoOperation
Index: 1
Type: 3
WasModified: 0
WasOrder2: 0
Layer: 2
EndUndoOperation
EndUndoes
Redoes
EndRedoes
EndUndoRedoHistory
Fore
SplineSet
230 76 m 1
 230 230 l 1
 76 230 l 1
 76 76 l 1
 230 76 l 1
230 251 m 2
 236 251 240 250 245 245 c 128
 250 240 251 236 251 230 c 2
 251 76 l 2
 251 70 250 65 245 61 c 128
 240 57 236 55 230 55 c 2
 76 55 l 2
 70 55 65 57 61 61 c 128
 57 65 55 70 55 76 c 2
 55 230 l 2
 55 236 57 240 61 245 c 128
 65 250 70 251 76 251 c 2
 230 251 l 2
32 207 m 1
 32 32 l 1
 207 32 l 1
 207 11 l 1
 32 11 l 2
 26 11 22 12 17 17 c 128
 12 22 11 26 11 32 c 2
 11 207 l 1
 32 207 l 1
EndSplineSet
EndChar

StartChar: T
Encoding: 84 84 34
Width: 260
VWidth: 260
Flags: HW
LayerCount: 2
UndoRedoHistory
Layer: 0
Undoes
UndoOperation
Index: 0
Type: 1
WasModified: 1
WasOrder2: 0
Layer: 2
Width: 209
VWidth: 209
LBearingChange: 0
UnicodeEnc: 0
InstructionsLength: 0
EndUndoOperation
UndoOperation
Index: 1
Type: 1
WasModified: 0
WasOrder2: 0
Layer: 2
Width: 512
VWidth: 512
LBearingChange: 0
UnicodeEnc: 0
InstructionsLength: 0
EndUndoOperation
EndUndoes
Redoes
EndRedoes
EndUndoRedoHistory
UndoRedoHistory
Layer: 1
Undoes
UndoOperation
Index: 0
Type: 3
WasModified: 1
WasOrder2: 0
Layer: 2
EndUndoOperation
UndoOperation
Index: 1
Type: 3
WasModified: 0
WasOrder2: 0
Layer: 2
EndUndoOperation
EndUndoes
Redoes
EndRedoes
EndUndoRedoHistory
Fore
SplineSet
77 31 m 5
 230 31 l 5
 230 184 l 5
 77 184 l 5
 77 31 l 5
252 31 m 6
 252 25 251 20 246 15 c 132
 241 10 236 9 230 9 c 6
 77 9 l 6
 71 9 66 10 62 15 c 132
 58 20 56 25 56 31 c 6
 56 184 l 6
 56 190 58 195 62 199 c 132
 66 203 71 205 77 205 c 6
 230 205 l 6
 236 205 241 203 246 199 c 132
 251 195 252 190 252 184 c 6
 252 31 l 6
209 227 m 5
 34 227 l 5
 34 52 l 5
 11 52 l 5
 11 227 l 6
 11 233 14 237 19 242 c 132
 24 247 28 250 34 250 c 6
 209 250 l 5
 209 227 l 5
EndSplineSet
EndChar

StartChar: U
Encoding: 85 85 35
Width: 260
VWidth: 260
Flags: HW
LayerCount: 2
UndoRedoHistory
Layer: 0
Undoes
UndoOperation
Index: 0
Type: 1
WasModified: 1
WasOrder2: 0
Layer: 2
Width: 209
VWidth: 209
LBearingChange: 0
UnicodeEnc: 0
InstructionsLength: 0
EndUndoOperation
UndoOperation
Index: 1
Type: 1
WasModified: 0
WasOrder2: 0
Layer: 2
Width: 512
VWidth: 512
LBearingChange: 0
UnicodeEnc: 0
InstructionsLength: 0
EndUndoOperation
EndUndoes
Redoes
EndRedoes
EndUndoRedoHistory
UndoRedoHistory
Layer: 1
Undoes
UndoOperation
Index: 0
Type: 3
WasModified: 1
WasOrder2: 0
Layer: 2
EndUndoOperation
UndoOperation
Index: 1
Type: 3
WasModified: 0
WasOrder2: 0
Layer: 2
EndUndoOperation
EndUndoes
Redoes
EndRedoes
EndUndoRedoHistory
Fore
SplineSet
34 185 m 5
 34 32 l 5
 186 32 l 5
 186 185 l 5
 34 185 l 5
34 10 m 6
 28 10 22 12 17 17 c 132
 12 22 11 26 11 32 c 6
 11 185 l 6
 11 191 12 197 17 201 c 132
 22 205 28 207 34 207 c 6
 186 207 l 6
 192 207 197 205 201 201 c 132
 205 197 207 191 207 185 c 6
 207 32 l 6
 207 26 205 22 201 17 c 132
 197 12 192 10 186 10 c 6
 34 10 l 6
230 54 m 5
 230 229 l 5
 55 229 l 5
 55 251 l 5
 230 251 l 6
 236 251 240 250 245 245 c 132
 250 240 252 235 252 229 c 6
 252 54 l 5
 230 54 l 5
EndSplineSet
EndChar

StartChar: V
Encoding: 86 86 36
Width: 260
VWidth: 260
Flags: HW
LayerCount: 2
UndoRedoHistory
Layer: 0
Undoes
UndoOperation
Index: 0
Type: 1
WasModified: 1
WasOrder2: 0
Layer: 2
Width: 209
VWidth: 209
LBearingChange: 0
UnicodeEnc: 0
InstructionsLength: 0
EndUndoOperation
UndoOperation
Index: 1
Type: 1
WasModified: 0
WasOrder2: 0
Layer: 2
Width: 512
VWidth: 512
LBearingChange: 0
UnicodeEnc: 0
InstructionsLength: 0
EndUndoOperation
EndUndoes
Redoes
EndRedoes
EndUndoRedoHistory
UndoRedoHistory
Layer: 1
Undoes
UndoOperation
Index: 0
Type: 3
WasModified: 1
WasOrder2: 0
Layer: 2
EndUndoOperation
UndoOperation
Index: 1
Type: 3
WasModified: 0
WasOrder2: 0
Layer: 2
EndUndoOperation
EndUndoes
Redoes
EndRedoes
EndUndoRedoHistory
Fore
SplineSet
32 76 m 5
 32 230 l 5
 185 230 l 5
 185 76 l 5
 32 76 l 5
32 251 m 6
 26 251 22 250 17 245 c 132
 12 240 10 236 10 230 c 6
 10 76 l 6
 10 70 12 65 17 61 c 132
 22 57 26 55 32 55 c 6
 185 55 l 6
 191 55 197 57 201 61 c 132
 205 65 207 70 207 76 c 6
 207 230 l 6
 207 236 205 240 201 245 c 132
 197 250 191 251 185 251 c 6
 32 251 l 6
229 207 m 5
 229 32 l 5
 54 32 l 5
 54 11 l 5
 229 11 l 6
 235 11 240 12 245 17 c 132
 250 22 251 26 251 32 c 6
 251 207 l 5
 229 207 l 5
EndSplineSet
EndChar

StartChar: W
Encoding: 87 87 37
Width: 260
VWidth: 260
Flags: HW
LayerCount: 2
UndoRedoHistory
Layer: 0
Undoes
UndoOperation
Index: 0
Type: 1
WasModified: 1
WasOrder2: 0
Layer: 2
Width: 209
VWidth: 209
LBearingChange: 0
UnicodeEnc: 0
InstructionsLength: 0
EndUndoOperation
UndoOperation
Index: 1
Type: 1
WasModified: 0
WasOrder2: 0
Layer: 2
Width: 512
VWidth: 512
LBearingChange: 0
UnicodeEnc: 0
InstructionsLength: 0
EndUndoOperation
EndUndoes
Redoes
EndRedoes
EndUndoRedoHistory
UndoRedoHistory
Layer: 1
Undoes
UndoOperation
Index: 0
Type: 3
WasModified: 1
WasOrder2: 0
Layer: 2
EndUndoOperation
UndoOperation
Index: 1
Type: 3
WasModified: 0
WasOrder2: 0
Layer: 2
EndUndoOperation
EndUndoes
Redoes
EndRedoes
EndUndoRedoHistory
Fore
SplineSet
230 76 m 1
 230 230 l 1
 76 230 l 1
 76 76 l 1
 230 76 l 1
230 251 m 2
 236 251 240 250 245 245 c 128
 250 240 251 236 251 230 c 2
 251 76 l 2
 251 70 250 65 245 61 c 128
 240 57 236 55 230 55 c 2
 76 55 l 2
 70 55 65 57 61 61 c 128
 57 65 55 70 55 76 c 2
 55 230 l 2
 55 236 57 240 61 245 c 128
 65 250 70 251 76 251 c 2
 230 251 l 2
32 207 m 1
 32 32 l 1
 207 32 l 1
 207 11 l 1
 32 11 l 2
 26 11 22 12 17 17 c 128
 12 22 11 26 11 32 c 2
 11 207 l 1
 32 207 l 1
EndSplineSet
EndChar

StartChar: X
Encoding: 88 88 38
Width: 260
VWidth: 260
Flags: HW
LayerCount: 2
UndoRedoHistory
Layer: 0
Undoes
UndoOperation
Index: 0
Type: 1
WasModified: 1
WasOrder2: 0
Layer: 2
Width: 209
VWidth: 209
LBearingChange: 0
UnicodeEnc: 0
InstructionsLength: 0
EndUndoOperation
UndoOperation
Index: 1
Type: 1
WasModified: 0
WasOrder2: 0
Layer: 2
Width: 512
VWidth: 512
LBearingChange: 0
UnicodeEnc: 0
InstructionsLength: 0
EndUndoOperation
EndUndoes
Redoes
EndRedoes
EndUndoRedoHistory
UndoRedoHistory
Layer: 1
Undoes
UndoOperation
Index: 0
Type: 3
WasModified: 1
WasOrder2: 0
Layer: 2
EndUndoOperation
UndoOperation
Index: 1
Type: 3
WasModified: 0
WasOrder2: 0
Layer: 2
EndUndoOperation
EndUndoes
Redoes
EndRedoes
EndUndoRedoHistory
Fore
SplineSet
177 160 m 5
 201 160 l 5
 201 146 l 5
 106 146 l 5
 106 160 l 5
 130 160 l 5
 136 167 l 5
 170 167 l 5
 177 160 l 5
126 126 m 5
 126 57 l 5
 181 57 l 5
 181 126 l 5
 126 126 l 5
112 57 m 6
 112 140 l 5
 195 140 l 5
 195 57 l 6
 195 53 192 51 190 49 c 132
 188 47 185 44 181 44 c 6
 126 44 l 6
 122 44 118 47 116 49 c 132
 114 51 112 53 112 57 c 6
77 31 m 1
 230 31 l 1
 230 184 l 1
 77 184 l 1
 77 31 l 1
252 31 m 2
 252 25 251 20 246 15 c 128
 241 10 236 9 230 9 c 2
 77 9 l 2
 71 9 66 10 62 15 c 128
 58 20 56 25 56 31 c 2
 56 184 l 2
 56 190 58 195 62 199 c 128
 66 203 71 205 77 205 c 2
 230 205 l 2
 236 205 241 203 246 199 c 128
 251 195 252 190 252 184 c 2
 252 31 l 2
209 227 m 1
 34 227 l 1
 34 52 l 1
 11 52 l 1
 11 227 l 2
 11 233 14 237 19 242 c 128
 24 247 28 250 34 250 c 2
 209 250 l 1
 209 227 l 1
EndSplineSet
EndChar

StartChar: Y
Encoding: 89 89 39
Width: 260
VWidth: 260
Flags: HW
LayerCount: 2
UndoRedoHistory
Layer: 0
Undoes
UndoOperation
Index: 0
Type: 1
WasModified: 1
WasOrder2: 0
Layer: 2
Width: 209
VWidth: 209
LBearingChange: 0
UnicodeEnc: 0
InstructionsLength: 0
EndUndoOperation
UndoOperation
Index: 1
Type: 1
WasModified: 0
WasOrder2: 0
Layer: 2
Width: 512
VWidth: 512
LBearingChange: 0
UnicodeEnc: 0
InstructionsLength: 0
EndUndoOperation
EndUndoes
Redoes
EndRedoes
EndUndoRedoHistory
UndoRedoHistory
Layer: 1
Undoes
UndoOperation
Index: 0
Type: 3
WasModified: 1
WasOrder2: 0
Layer: 2
EndUndoOperation
UndoOperation
Index: 1
Type: 3
WasModified: 0
WasOrder2: 0
Layer: 2
EndUndoOperation
EndUndoes
Redoes
EndRedoes
EndUndoRedoHistory
Fore
SplineSet
34 185 m 5
 34 32 l 5
 186 32 l 5
 186 185 l 5
 34 185 l 5
34 10 m 6
 28 10 22 12 17 17 c 132
 12 22 11 26 11 32 c 6
 11 185 l 6
 11 191 12 197 17 201 c 132
 22 205 28 207 34 207 c 6
 186 207 l 6
 192 207 197 205 201 201 c 132
 205 197 207 191 207 185 c 6
 207 32 l 6
 207 26 205 22 201 17 c 132
 197 12 192 10 186 10 c 6
 34 10 l 6
230 54 m 5
 230 229 l 5
 55 229 l 5
 55 251 l 5
 230 251 l 6
 236 251 240 250 245 245 c 132
 250 240 252 235 252 229 c 6
 252 54 l 5
 230 54 l 5
EndSplineSet
EndChar

StartChar: Z
Encoding: 90 90 40
Width: 260
VWidth: 260
Flags: HW
LayerCount: 2
UndoRedoHistory
Layer: 0
Undoes
UndoOperation
Index: 0
Type: 1
WasModified: 1
WasOrder2: 0
Layer: 2
Width: 209
VWidth: 209
LBearingChange: 0
UnicodeEnc: 0
InstructionsLength: 0
EndUndoOperation
UndoOperation
Index: 1
Type: 1
WasModified: 0
WasOrder2: 0
Layer: 2
Width: 512
VWidth: 512
LBearingChange: 0
UnicodeEnc: 0
InstructionsLength: 0
EndUndoOperation
EndUndoes
Redoes
EndRedoes
EndUndoRedoHistory
UndoRedoHistory
Layer: 1
Undoes
UndoOperation
Index: 0
Type: 3
WasModified: 1
WasOrder2: 0
Layer: 2
EndUndoOperation
UndoOperation
Index: 1
Type: 3
WasModified: 0
WasOrder2: 0
Layer: 2
EndUndoOperation
EndUndoes
Redoes
EndRedoes
EndUndoRedoHistory
Fore
SplineSet
32 76 m 5
 32 230 l 5
 185 230 l 5
 185 76 l 5
 32 76 l 5
32 251 m 6
 26 251 22 250 17 245 c 132
 12 240 10 236 10 230 c 6
 10 76 l 6
 10 70 12 65 17 61 c 132
 22 57 26 55 32 55 c 6
 185 55 l 6
 191 55 197 57 201 61 c 132
 205 65 207 70 207 76 c 6
 207 230 l 6
 207 236 205 240 201 245 c 132
 197 250 191 251 185 251 c 6
 32 251 l 6
229 207 m 5
 229 32 l 5
 54 32 l 5
 54 11 l 5
 229 11 l 6
 235 11 240 12 245 17 c 132
 250 22 251 26 251 32 c 6
 251 207 l 5
 229 207 l 5
EndSplineSet
EndChar

StartChar: bracketleft
Encoding: 91 91 41
Width: 260
VWidth: 260
Flags: HW
LayerCount: 2
UndoRedoHistory
Layer: 0
Undoes
UndoOperation
Index: 0
Type: 1
WasModified: 1
WasOrder2: 0
Layer: 2
Width: 209
VWidth: 209
LBearingChange: 0
UnicodeEnc: 0
InstructionsLength: 0
EndUndoOperation
UndoOperation
Index: 1
Type: 1
WasModified: 0
WasOrder2: 0
Layer: 2
Width: 512
VWidth: 512
LBearingChange: 0
UnicodeEnc: 0
InstructionsLength: 0
EndUndoOperation
EndUndoes
Redoes
EndRedoes
EndUndoRedoHistory
UndoRedoHistory
Layer: 1
Undoes
UndoOperation
Index: 0
Type: 3
WasModified: 1
WasOrder2: 0
Layer: 2
EndUndoOperation
UndoOperation
Index: 1
Type: 3
WasModified: 0
WasOrder2: 0
Layer: 2
EndUndoOperation
EndUndoes
Redoes
EndRedoes
EndUndoRedoHistory
Fore
SplineSet
142 169 m 0
 138 169 133 166 131 164 c 128
 129 162 126 158 126 154 c 0
 126 149 129 144 131 142 c 128
 133 140 138 137 142 137 c 0
 147 137 152 140 154 142 c 128
 156 144 157 149 157 154 c 0
 157 158 156 162 154 164 c 128
 152 166 147 169 142 169 c 0
142 230 m 0
 132 230 123 228 114 224 c 128
 105 220 97 215 90 209 c 128
 83 203 76 194 72 185 c 128
 68 176 66 166 65 156 c 1
 45 129 l 2
 44 127 43 126 44 124 c 128
 45 122 47 120 49 120 c 2
 65 120 l 1
 65 87 l 2
 65 81 68 76 72 72 c 128
 76 68 81 65 87 65 c 2
 99 65 l 1
 99 32 l 1
 175 32 l 1
 175 84 l 1
 187 90 197 99 206 111 c 128
 215 123 219 139 219 154 c 0
 219 164 216 173 212 182 c 128
 208 191 203 200 196 207 c 128
 189 214 180 220 171 224 c 128
 162 228 152 230 142 230 c 0
175 154 m 0
 175 153 175 152 175 151 c 128
 175 150 175 150 175 149 c 2
 184 141 l 2
 185 140 185 140 185 139 c 2
 176 124 l 2
 175 123 173 122 172 122 c 2
 162 127 l 1
 160 126 157 123 155 122 c 1
 154 111 l 2
 154 110 152 109 151 109 c 2
 134 109 l 2
 133 109 131 110 131 111 c 2
 130 122 l 1
 128 123 124 126 122 127 c 1
 111 122 l 2
 110 122 110 123 109 124 c 2
 100 139 l 2
 99 140 99 140 100 141 c 2
 110 149 l 2
 110 150 110 150 110 151 c 128
 110 152 109 153 109 154 c 256
 109 155 110 154 110 155 c 128
 110 156 110 156 110 157 c 2
 100 165 l 2
 99 166 99 166 100 167 c 2
 109 182 l 2
 110 183 110 184 111 184 c 2
 122 179 l 1
 124 181 128 183 130 184 c 1
 131 195 l 2
 131 196 133 196 134 196 c 2
 151 196 l 2
 152 196 154 196 154 195 c 2
 155 184 l 1
 157 183 160 181 162 179 c 1
 172 184 l 2
 173 184 175 183 176 182 c 2
 185 167 l 2
 186 166 185 166 184 165 c 2
 174 157 l 2
 174 156 175 155 175 154 c 0
EndSplineSet
EndChar

StartChar: backslash
Encoding: 92 92 42
Width: 260
VWidth: 260
Flags: HW
LayerCount: 2
UndoRedoHistory
Layer: 0
Undoes
UndoOperation
Index: 0
Type: 1
WasModified: 1
WasOrder2: 0
Layer: 2
Width: 209
VWidth: 209
LBearingChange: 0
UnicodeEnc: 0
InstructionsLength: 0
EndUndoOperation
UndoOperation
Index: 1
Type: 1
WasModified: 0
WasOrder2: 0
Layer: 2
Width: 512
VWidth: 512
LBearingChange: 0
UnicodeEnc: 0
InstructionsLength: 0
EndUndoOperation
EndUndoes
Redoes
EndRedoes
EndUndoRedoHistory
UndoRedoHistory
Layer: 1
Undoes
UndoOperation
Index: 0
Type: 3
WasModified: 1
WasOrder2: 0
Layer: 2
EndUndoOperation
UndoOperation
Index: 1
Type: 3
WasModified: 0
WasOrder2: 0
Layer: 2
EndUndoOperation
EndUndoes
Redoes
EndRedoes
EndUndoRedoHistory
Fore
SplineSet
104 139 m 4
 102 139 98 138 96 136 c 132
 94 134 94 131 94 129 c 4
 94 127 94 123 96 121 c 132
 98 119 102 117 104 117 c 4
 106 117 109 119 111 121 c 132
 113 123 115 127 115 129 c 4
 115 131 113 134 111 136 c 132
 109 138 106 139 104 139 c 4
126 129 m 4
 126 128 126 128 126 127 c 132
 126 126 126 125 126 125 c 6
 132 120 l 6
 132 120 132 120 132 119 c 6
 127 109 l 6
 127 108 126 107 125 107 c 6
 117 111 l 5
 116 110 113 108 112 107 c 5
 111 100 l 6
 111 99 111 99 110 99 c 6
 97 99 l 6
 96 99 96 99 96 100 c 6
 95 107 l 5
 94 108 91 110 90 111 c 5
 82 107 l 6
 81 107 81 108 81 109 c 6
 75 119 l 6
 75 120 74 120 75 120 c 6
 81 125 l 6
 81 127 l 132
 81 129 l 260
 81 130 l 132
 81 131 l 6
 75 136 l 6
 74 136 75 138 75 139 c 6
 81 149 l 6
 81 150 81 150 82 150 c 6
 90 146 l 5
 91 147 94 149 95 150 c 5
 96 157 l 6
 96 158 96 159 97 159 c 6
 110 159 l 6
 111 159 111 158 111 157 c 6
 112 150 l 5
 113 149 116 147 117 146 c 5
 125 150 l 6
 126 150 127 150 127 149 c 6
 132 139 l 6
 132 138 133 136 132 136 c 6
 126 131 l 6
 126 131 126 130 126 129 c 4
166 141 m 0
 162 141 159 139 157 137 c 128
 155 135 154 133 154 129 c 0
 154 125 155 122 157 120 c 128
 159 118 162 116 166 116 c 0
 170 116 174 118 176 120 c 128
 178 122 180 125 180 129 c 0
 180 133 178 135 176 137 c 128
 174 139 170 141 166 141 c 0
194 129 m 0
 194 128 194 127 194 126 c 128
 194 125 194 125 194 125 c 2
 201 119 l 2
 201 119 201 118 201 117 c 2
 194 105 l 2
 194 104 192 104 191 104 c 2
 182 107 l 1
 181 106 179 105 177 104 c 1
 176 95 l 2
 176 94 175 92 174 92 c 2
 160 92 l 2
 159 92 157 94 157 95 c 2
 156 104 l 1
 154 105 152 106 150 107 c 1
 141 104 l 2
 140 104 140 104 140 105 c 2
 132 117 l 2
 132 118 131 119 132 119 c 2
 140 125 l 2
 140 125 140 125 140 126 c 128
 140 127 140 129 140 129 c 256
 140 130 l 128
 140 132 l 2
 132 137 l 2
 131 137 131 139 132 140 c 2
 140 152 l 2
 140 153 140 154 141 154 c 2
 151 150 l 1
 153 151 154 153 156 154 c 1
 157 162 l 2
 157 163 159 164 160 164 c 2
 174 164 l 2
 175 164 176 163 176 162 c 2
 177 154 l 1
 179 153 180 151 182 150 c 1
 191 154 l 2
 192 154 194 153 194 152 c 2
 201 140 l 2
 202 139 202 137 201 137 c 2
 192 132 l 2
 192 132 194 130 194 129 c 0
117 190 m 0
 113 190 111 188 109 186 c 128
 107 184 105 181 105 177 c 0
 105 173 107 171 109 169 c 128
 111 167 113 165 117 165 c 0
 121 165 124 167 126 169 c 128
 128 171 130 173 130 177 c 0
 130 181 128 184 126 186 c 128
 124 188 121 190 117 190 c 0
142 230 m 0
 132 230 123 228 114 224 c 128
 105 220 97 215 90 209 c 128
 83 203 76 194 72 185 c 128
 68 176 66 166 65 156 c 1
 45 129 l 2
 44 127 43 126 44 124 c 128
 45 122 47 120 49 120 c 2
 65 120 l 1
 65 87 l 2
 65 81 68 76 72 72 c 128
 76 68 81 65 87 65 c 2
 99 65 l 1
 99 32 l 1
 175 32 l 1
 175 84 l 1
 187 90 197 99 206 111 c 128
 215 123 219 139 219 154 c 0
 219 164 216 173 212 182 c 128
 208 191 203 200 196 207 c 128
 189 214 180 220 171 224 c 128
 162 228 152 230 142 230 c 0
144 177 m 0
 144 176 144 177 144 176 c 128
 144 175 144 174 144 174 c 2
 151 169 l 2
 151 169 151 167 151 166 c 2
 145 154 l 2
 145 153 143 152 142 152 c 2
 134 156 l 1
 133 155 129 155 127 154 c 1
 126 144 l 2
 126 143 125 142 124 142 c 2
 110 142 l 2
 109 142 109 143 109 144 c 2
 107 154 l 1
 105 155 103 155 101 156 c 1
 92 152 l 2
 91 152 90 153 90 154 c 2
 82 166 l 2
 82 167 83 169 84 169 c 2
 91 174 l 2
 91 174 91 175 91 176 c 128
 91 177 90 177 90 177 c 256
 91 180 l 128
 91 181 l 2
 84 187 l 2
 83 187 81 189 82 190 c 2
 90 201 l 2
 90 202 91 202 92 202 c 2
 101 199 l 1
 103 200 105 201 107 202 c 1
 109 211 l 2
 109 212 109 214 110 214 c 2
 124 214 l 2
 125 214 126 212 126 211 c 2
 127 202 l 1
 129 201 132 200 134 199 c 1
 142 202 l 2
 143 202 145 202 145 201 c 2
 151 190 l 2
 152 189 152 187 151 187 c 2
 144 181 l 2
 144 181 144 178 144 177 c 0
EndSplineSet
EndChar

StartChar: bracketright
Encoding: 93 93 43
Width: 260
VWidth: 260
Flags: HW
LayerCount: 2
UndoRedoHistory
Layer: 0
Undoes
UndoOperation
Index: 0
Type: 1
WasModified: 1
WasOrder2: 0
Layer: 2
Width: 209
VWidth: 209
LBearingChange: 0
UnicodeEnc: 0
InstructionsLength: 0
EndUndoOperation
UndoOperation
Index: 1
Type: 1
WasModified: 0
WasOrder2: 0
Layer: 2
Width: 512
VWidth: 512
LBearingChange: 0
UnicodeEnc: 0
InstructionsLength: 0
EndUndoOperation
EndUndoes
Redoes
EndRedoes
EndUndoRedoHistory
UndoRedoHistory
Layer: 1
Undoes
UndoOperation
Index: 0
Type: 3
WasModified: 1
WasOrder2: 0
Layer: 2
EndUndoOperation
UndoOperation
Index: 1
Type: 3
WasModified: 0
WasOrder2: 0
Layer: 2
EndUndoOperation
EndUndoes
Redoes
EndRedoes
EndUndoRedoHistory
Fore
SplineSet
101 136 m 4
 99 136 96 134 94 132 c 132
 92 130 91 128 91 126 c 4
 91 124 92 119 94 117 c 132
 96 115 99 115 101 115 c 4
 103 115 107 115 109 117 c 132
 111 119 112 124 112 126 c 4
 112 128 111 130 109 132 c 132
 107 134 103 136 101 136 c 4
124 126 m 4
 124 125 124 125 124 124 c 132
 124 123 124 122 124 122 c 6
 130 117 l 6
 130 117 131 117 131 116 c 6
 125 105 l 6
 125 104 123 105 122 105 c 6
 115 107 l 5
 114 106 111 106 110 105 c 5
 109 96 l 6
 109 95 108 95 107 95 c 6
 96 95 l 6
 95 95 94 95 94 96 c 6
 94 105 l 5
 93 106 88 106 87 107 c 5
 80 105 l 6
 79 105 79 104 79 105 c 6
 72 116 l 6
 72 117 73 117 74 117 c 6
 80 122 l 6
 79 124 l 132
 79 126 l 260
 79 127 l 132
 80 129 l 6
 74 134 l 6
 73 134 72 134 72 135 c 6
 79 146 l 6
 79 147 79 146 80 146 c 6
 89 144 l 5
 90 145 93 145 94 146 c 5
 94 154 l 6
 94 155 95 155 96 155 c 6
 107 155 l 6
 108 155 109 155 109 154 c 6
 110 146 l 5
 111 145 114 145 115 144 c 5
 122 146 l 6
 123 146 125 147 125 146 c 6
 131 135 l 6
 131 134 131 134 130 134 c 6
 124 129 l 6
 124 129 124 127 124 126 c 4
167 141 m 0
 163 141 161 139 159 137 c 128
 157 135 155 133 155 129 c 0
 155 125 157 122 159 120 c 128
 161 118 163 116 167 116 c 0
 171 116 174 118 176 120 c 128
 178 122 180 125 180 129 c 0
 180 133 178 135 176 137 c 128
 174 139 171 141 167 141 c 0
194 129 m 0
 194 128 194 127 194 126 c 128
 194 125 194 125 194 125 c 2
 201 119 l 2
 201 119 201 118 201 117 c 2
 195 105 l 2
 195 104 193 104 192 104 c 2
 184 107 l 1
 183 106 179 105 177 104 c 1
 176 95 l 2
 176 94 175 92 174 92 c 2
 160 92 l 2
 159 92 159 94 159 95 c 2
 157 104 l 1
 155 105 153 106 151 107 c 1
 142 104 l 2
 141 104 140 104 140 105 c 2
 132 117 l 2
 132 118 133 119 134 119 c 2
 141 125 l 2
 141 125 141 125 141 126 c 128
 141 127 140 129 140 129 c 256
 141 130 l 128
 141 132 l 2
 134 137 l 2
 133 137 131 139 132 140 c 2
 140 152 l 2
 140 153 141 154 142 154 c 2
 151 150 l 1
 153 151 155 153 157 154 c 1
 159 162 l 2
 159 163 159 164 160 164 c 2
 174 164 l 2
 175 164 176 163 176 162 c 2
 177 154 l 1
 179 153 182 151 184 150 c 1
 192 154 l 2
 193 154 195 153 195 152 c 2
 201 140 l 2
 202 139 202 137 201 137 c 2
 194 132 l 2
 194 132 194 130 194 129 c 0
125 196 m 0
 121 196 118 194 116 192 c 128
 114 190 112 188 112 184 c 0
 112 180 114 177 116 175 c 128
 118 173 121 171 125 171 c 0
 129 171 132 173 134 175 c 128
 136 177 137 180 137 184 c 0
 137 188 136 190 134 192 c 128
 132 194 129 196 125 196 c 0
142 230 m 0
 132 230 123 228 114 224 c 128
 105 220 97 215 90 209 c 128
 83 203 76 194 72 185 c 128
 68 176 67 166 66 156 c 1
 45 129 l 2
 44 127 43 126 44 124 c 128
 45 122 48 120 50 120 c 2
 66 120 l 1
 66 87 l 2
 66 81 68 76 72 72 c 128
 76 68 81 66 87 66 c 2
 99 66 l 1
 99 32 l 1
 175 32 l 1
 175 84 l 1
 187 90 197 99 206 111 c 128
 215 123 219 139 219 154 c 0
 219 164 216 173 212 182 c 128
 208 191 203 200 196 207 c 128
 189 214 181 220 172 224 c 128
 163 228 152 230 142 230 c 0
151 184 m 0
 151 183 151 183 151 182 c 128
 151 181 151 180 151 180 c 2
 159 175 l 2
 159 175 160 173 160 172 c 2
 152 160 l 2
 152 159 151 159 150 159 c 2
 141 162 l 1
 140 161 137 161 135 160 c 1
 134 150 l 2
 134 149 133 149 132 149 c 2
 117 149 l 2
 116 149 116 149 116 150 c 2
 115 160 l 1
 113 161 111 161 109 162 c 1
 100 159 l 2
 99 159 97 159 97 160 c 2
 91 172 l 2
 91 173 90 175 91 175 c 2
 99 180 l 2
 99 180 99 181 99 182 c 128
 99 183 99 184 99 184 c 256
 99 186 l 128
 99 187 l 2
 91 192 l 2
 90 192 90 194 91 195 c 2
 97 207 l 2
 97 208 99 209 100 209 c 2
 109 205 l 1
 111 206 113 208 115 209 c 1
 116 217 l 2
 116 218 116 219 117 219 c 2
 132 219 l 2
 133 219 134 218 134 217 c 2
 135 209 l 1
 137 208 139 206 141 205 c 1
 150 209 l 2
 151 209 152 208 152 207 c 2
 160 195 l 2
 160 194 160 192 159 192 c 2
 151 187 l 2
 151 187 151 185 151 184 c 0
EndSplineSet
EndChar

StartChar: asciicircum
Encoding: 94 94 44
Width: 260
VWidth: 260
Flags: HW
LayerCount: 2
UndoRedoHistory
Layer: 0
Undoes
UndoOperation
Index: 0
Type: 1
WasModified: 1
WasOrder2: 0
Layer: 2
Width: 209
VWidth: 209
LBearingChange: 0
UnicodeEnc: 0
InstructionsLength: 0
EndUndoOperation
UndoOperation
Index: 1
Type: 1
WasModified: 0
WasOrder2: 0
Layer: 2
Width: 512
VWidth: 512
LBearingChange: 0
UnicodeEnc: 0
InstructionsLength: 0
EndUndoOperation
EndUndoes
Redoes
EndRedoes
EndUndoRedoHistory
UndoRedoHistory
Layer: 1
Undoes
UndoOperation
Index: 0
Type: 3
WasModified: 1
WasOrder2: 0
Layer: 2
EndUndoOperation
UndoOperation
Index: 1
Type: 3
WasModified: 0
WasOrder2: 0
Layer: 2
EndUndoOperation
EndUndoes
Redoes
EndRedoes
EndUndoRedoHistory
Fore
SplineSet
224 56 m 5
 206 56 l 5
 206 39 l 5
 224 39 l 5
 224 56 l 5
190 56 m 5
 39 56 l 5
 39 39 l 5
 190 39 l 5
 190 56 l 5
206 72 m 5
 224 72 l 5
 224 222 l 5
 206 222 l 5
 206 72 l 5
39 72 m 5
 190 72 l 5
 190 222 l 5
 39 222 l 5
 39 72 l 5
22 239 m 5
 240 239 l 5
 240 22 l 5
 22 22 l 5
 22 239 l 5
EndSplineSet
EndChar

StartChar: underscore
Encoding: 95 95 45
Width: 260
VWidth: 260
Flags: HW
LayerCount: 2
UndoRedoHistory
Layer: 0
Undoes
UndoOperation
Index: 0
Type: 1
WasModified: 1
WasOrder2: 0
Layer: 2
Width: 209
VWidth: 209
LBearingChange: 0
UnicodeEnc: 0
InstructionsLength: 0
EndUndoOperation
UndoOperation
Index: 1
Type: 1
WasModified: 0
WasOrder2: 0
Layer: 2
Width: 512
VWidth: 512
LBearingChange: 0
UnicodeEnc: 0
InstructionsLength: 0
EndUndoOperation
EndUndoes
Redoes
EndRedoes
EndUndoRedoHistory
UndoRedoHistory
Layer: 1
Undoes
UndoOperation
Index: 0
Type: 3
WasModified: 1
WasOrder2: 0
Layer: 2
EndUndoOperation
UndoOperation
Index: 1
Type: 3
WasModified: 0
WasOrder2: 0
Layer: 2
EndUndoOperation
EndUndoes
Redoes
EndRedoes
EndUndoRedoHistory
Fore
SplineSet
140 216 m 5
 164 216 l 5
 164 202 l 5
 69 202 l 5
 69 216 l 5
 92 216 l 5
 100 224 l 5
 134 224 l 5
 140 216 l 5
90 182 m 5
 90 115 l 5
 144 115 l 5
 144 182 l 5
 90 182 l 5
76 115 m 6
 76 196 l 5
 157 196 l 5
 157 115 l 6
 157 111 156 107 154 105 c 132
 152 103 148 101 144 101 c 6
 90 101 l 6
 86 101 82 103 80 105 c 132
 78 107 76 111 76 115 c 6
222 75 m 5
 202 75 l 5
 202 57 l 5
 222 57 l 5
 222 75 l 5
189 75 m 5
 42 75 l 5
 42 57 l 5
 189 57 l 5
 189 75 l 5
205 91 m 5
 222 91 l 5
 222 235 l 5
 205 235 l 5
 205 91 l 5
44 91 m 5
 189 91 l 5
 189 235 l 5
 44 235 l 5
 44 91 l 5
22 256 m 5
 240 256 l 5
 240 44 l 5
 22 44 l 5
 22 256 l 5
EndSplineSet
EndChar

StartChar: h
Encoding: 104 104 46
Width: 260
VWidth: 260
Flags: HW
LayerCount: 2
UndoRedoHistory
Layer: 0
Undoes
UndoOperation
Index: 0
Type: 1
WasModified: 1
WasOrder2: 0
Layer: 2
Width: 209
VWidth: 209
LBearingChange: 0
UnicodeEnc: 0
InstructionsLength: 0
EndUndoOperation
UndoOperation
Index: 1
Type: 1
WasModified: 0
WasOrder2: 0
Layer: 2
Width: 512
VWidth: 512
LBearingChange: 0
UnicodeEnc: 0
InstructionsLength: 0
EndUndoOperation
EndUndoes
Redoes
EndRedoes
EndUndoRedoHistory
UndoRedoHistory
Layer: 1
Undoes
UndoOperation
Index: 0
Type: 3
WasModified: 1
WasOrder2: 0
Layer: 2
EndUndoOperation
UndoOperation
Index: 1
Type: 3
WasModified: 0
WasOrder2: 0
Layer: 2
EndUndoOperation
UndoOperation
Index: 2
Type: 3
WasModified: 0
WasOrder2: 0
Layer: 2
EndUndoOperation
EndUndoes
Redoes
EndRedoes
EndUndoRedoHistory
Fore
SplineSet
130 164 m 5
 131 164 l 6
 140 164 148 160 154 154 c 132
 160 148 164 140 164 131 c 6
 164 129 l 5
 130 164 l 5
82 155 m 5
 78 146 76 138 76 131 c 4
 76 116 81 103 92 92 c 132
 103 81 116 76 131 76 c 4
 138 76 146 78 155 82 c 5
 139 100 l 5
 137 99 133 99 131 99 c 4
 122 99 115 103 109 109 c 132
 103 115 99 122 99 131 c 4
 99 133 99 137 100 139 c 5
 82 155 l 5
22 216 m 5
 36 230 l 5
 230 36 l 5
 216 22 l 5
 215 23 209 28 200 37 c 132
 191 46 184 54 179 59 c 5
 164 53 148 49 131 49 c 4
 104 49 78 56 57 71 c 132
 36 86 21 106 11 131 c 5
 15 140 22 150 29 161 c 132
 36 172 44 179 51 185 c 5
 47 189 42 195 35 202 c 132
 28 209 23 215 22 216 c 5
131 186 m 4
 125 186 117 184 111 182 c 5
 87 205 l 5
 101 210 115 214 131 214 c 4
 158 214 183 206 204 191 c 132
 225 176 241 156 251 131 c 5
 242 111 230 94 214 80 c 5
 182 111 l 5
 184 117 186 125 186 131 c 4
 186 146 181 159 170 170 c 132
 159 181 146 186 131 186 c 4
EndSplineSet
EndChar

StartChar: i
Encoding: 105 105 47
Width: 260
VWidth: 260
Flags: HW
LayerCount: 2
UndoRedoHistory
Layer: 0
Undoes
UndoOperation
Index: 0
Type: 1
WasModified: 1
WasOrder2: 0
Layer: 2
Width: 209
VWidth: 209
LBearingChange: 0
UnicodeEnc: 0
InstructionsLength: 0
EndUndoOperation
UndoOperation
Index: 1
Type: 1
WasModified: 0
WasOrder2: 0
Layer: 2
Width: 512
VWidth: 512
LBearingChange: 0
UnicodeEnc: 0
InstructionsLength: 0
EndUndoOperation
EndUndoes
Redoes
EndRedoes
EndUndoRedoHistory
UndoRedoHistory
Layer: 1
Undoes
UndoOperation
Index: 0
Type: 3
WasModified: 1
WasOrder2: 0
Layer: 2
EndUndoOperation
UndoOperation
Index: 1
Type: 3
WasModified: 0
WasOrder2: 0
Layer: 2
EndUndoOperation
UndoOperation
Index: 2
Type: 3
WasModified: 0
WasOrder2: 0
Layer: 2
EndUndoOperation
EndUndoes
Redoes
EndRedoes
EndUndoRedoHistory
Fore
SplineSet
-17 139 m 5
 -16 139 l 6
 -11 139 -8 136 -4 132 c 132
 0 128 1 125 1 120 c 6
 1 119 l 5
 -17 139 l 5
-44 134 m 5
 -46 129 -46 124 -46 120 c 4
 -46 111 -43 105 -37 99 c 132
 -31 93 -25 90 -16 90 c 4
 -12 90 -9 92 -4 94 c 5
 -12 102 l 5
 -13 102 -15 102 -16 102 c 4
 -21 102 -25 103 -29 107 c 132
 -33 111 -35 115 -35 120 c 4
 -35 121 -34 123 -34 124 c 5
 -44 134 l 5
-76 166 m 5
 -69 174 l 5
 37 67 l 5
 30 60 l 5
 29 61 26 64 21 69 c 132
 16 74 12 78 10 80 c 5
 3 76 -7 75 -16 75 c 4
 -31 75 -45 78 -57 87 c 132
 -69 96 -77 106 -82 120 c 5
 -80 125 -77 130 -72 136 c 132
 -67 142 -64 146 -60 150 c 5
 -62 152 -66 156 -70 160 c 132
 -74 164 -76 166 -76 166 c 5
-16 150 m 4
 -20 150 -23 148 -27 147 c 5
 -40 161 l 5
 -33 163 -25 165 -16 165 c 4
 -1 165 12 161 24 152 c 132
 36 143 44 134 49 120 c 5
 44 109 38 98 29 91 c 5
 11 109 l 5
 12 113 14 116 14 120 c 4
 14 129 11 135 5 141 c 132
 -1 147 -7 150 -16 150 c 4
207 230 m 2
 55 230 l 2
 49 230 43 228 39 224 c 128
 35 220 32 213 32 207 c 2
 31 55 l 2
 31 49 35 43 39 39 c 128
 43 35 49 32 55 32 c 2
 207 32 l 2
 213 32 220 35 224 39 c 128
 228 43 230 49 230 55 c 2
 230 207 l 2
 230 213 228 220 224 224 c 128
 220 228 213 230 207 230 c 2
207 55 m 1
 55 55 l 1
 55 186 l 1
 207 186 l 1
 207 55 l 1
147 120 m 0
 147 115 146 111 142 109 c 128
 138 107 136 104 131 104 c 256
 126 104 124 107 120 109 c 128
 116 111 115 115 115 120 c 0
 115 125 116 128 120 132 c 128
 124 136 126 136 131 136 c 256
 136 136 138 136 142 132 c 128
 146 128 147 125 147 120 c 0
131 164 m 256
 121 164 113 163 104 159 c 128
 95 155 86 148 80 142 c 128
 74 136 69 129 65 120 c 1
 69 111 74 103 80 97 c 128
 86 91 95 86 104 82 c 128
 113 78 121 76 131 76 c 256
 141 76 150 78 159 82 c 128
 168 86 176 91 182 97 c 128
 188 103 192 111 196 120 c 1
 192 129 188 136 182 142 c 128
 176 148 168 155 159 159 c 128
 150 163 141 164 131 164 c 256
131 92 m 256
 124 92 117 96 112 101 c 128
 107 106 104 113 104 120 c 256
 104 127 107 135 112 140 c 128
 117 145 124 147 131 147 c 256
 138 147 145 145 150 140 c 128
 155 135 159 127 159 120 c 256
 159 113 155 106 150 101 c 128
 145 96 138 92 131 92 c 256
207 230 m 2
 55 230 l 2
 49 230 43 228 39 224 c 128
 35 220 32 213 32 207 c 2
 31 55 l 2
 31 49 35 43 39 39 c 128
 43 35 49 32 55 32 c 2
 207 32 l 2
 213 32 220 35 224 39 c 128
 228 43 230 49 230 55 c 2
 230 207 l 2
 230 213 228 220 224 224 c 128
 220 228 213 230 207 230 c 2
207 55 m 1
 55 55 l 1
 55 186 l 1
 207 186 l 1
 207 55 l 1
147 120 m 0
 147 115 146 111 142 109 c 128
 138 107 136 104 131 104 c 256
 126 104 124 107 120 109 c 128
 116 111 115 115 115 120 c 0
 115 125 116 128 120 132 c 128
 124 136 126 136 131 136 c 256
 136 136 138 136 142 132 c 128
 146 128 147 125 147 120 c 0
131 164 m 256
 121 164 113 163 104 159 c 128
 95 155 86 148 80 142 c 128
 74 136 69 129 65 120 c 1
 69 111 74 103 80 97 c 128
 86 91 95 86 104 82 c 128
 113 78 121 76 131 76 c 256
 141 76 150 78 159 82 c 128
 168 86 176 91 182 97 c 128
 188 103 192 111 196 120 c 1
 192 129 188 136 182 142 c 128
 176 148 168 155 159 159 c 128
 150 163 141 164 131 164 c 256
131 92 m 256
 124 92 117 96 112 101 c 128
 107 106 104 113 104 120 c 256
 104 127 107 135 112 140 c 128
 117 145 124 147 131 147 c 256
 138 147 145 145 150 140 c 128
 155 135 159 127 159 120 c 256
 159 113 155 106 150 101 c 128
 145 96 138 92 131 92 c 256
EndSplineSet
EndChar

StartChar: j
Encoding: 106 106 48
Width: 260
VWidth: 260
Flags: HW
LayerCount: 2
UndoRedoHistory
Layer: 0
Undoes
UndoOperation
Index: 0
Type: 1
WasModified: 1
WasOrder2: 0
Layer: 2
Width: 209
VWidth: 209
LBearingChange: 0
UnicodeEnc: 0
InstructionsLength: 0
EndUndoOperation
UndoOperation
Index: 1
Type: 1
WasModified: 0
WasOrder2: 0
Layer: 2
Width: 512
VWidth: 512
LBearingChange: 0
UnicodeEnc: 0
InstructionsLength: 0
EndUndoOperation
EndUndoes
Redoes
EndRedoes
EndUndoRedoHistory
UndoRedoHistory
Layer: 1
Undoes
UndoOperation
Index: 0
Type: 3
WasModified: 1
WasOrder2: 0
Layer: 2
EndUndoOperation
UndoOperation
Index: 1
Type: 3
WasModified: 0
WasOrder2: 0
Layer: 2
EndUndoOperation
UndoOperation
Index: 2
Type: 3
WasModified: 0
WasOrder2: 0
Layer: 2
EndUndoOperation
EndUndoes
Redoes
EndRedoes
EndUndoRedoHistory
Fore
SplineSet
207 230 m 2
 55 230 l 2
 49 230 43 228 39 224 c 128
 35 220 32 213 32 207 c 2
 32 55 l 2
 32 49 35 43 39 39 c 128
 43 35 49 32 55 32 c 2
 207 32 l 2
 213 32 220 35 224 39 c 128
 228 43 230 49 230 55 c 2
 230 207 l 2
 230 213 228 220 224 224 c 128
 220 228 213 230 207 230 c 2
207 55 m 1
 55 55 l 1
 55 186 l 1
 207 186 l 1
 207 55 l 1
147 120 m 4
 147 115 146 111 142 109 c 132
 138 107 136 104 131 104 c 260
 126 104 124 107 120 109 c 132
 116 111 115 115 115 120 c 4
 115 125 116 128 120 132 c 132
 124 136 126 136 131 136 c 260
 136 136 138 136 142 132 c 132
 146 128 147 125 147 120 c 4
131 164 m 260
 121 164 113 163 104 159 c 132
 95 155 86 148 80 142 c 132
 74 136 69 129 65 120 c 5
 69 111 74 103 80 97 c 132
 86 91 95 86 104 82 c 132
 113 78 121 76 131 76 c 260
 141 76 150 78 159 82 c 132
 168 86 176 91 182 97 c 132
 188 103 192 111 196 120 c 5
 192 129 188 136 182 142 c 132
 176 148 168 155 159 159 c 132
 150 163 141 164 131 164 c 260
131 92 m 260
 124 92 117 96 112 101 c 132
 107 106 104 113 104 120 c 260
 104 127 107 135 112 140 c 132
 117 145 124 147 131 147 c 260
 138 147 145 145 150 140 c 132
 155 135 159 127 159 120 c 260
 159 113 155 106 150 101 c 132
 145 96 138 92 131 92 c 260
EndSplineSet
EndChar

StartChar: k
Encoding: 107 107 49
Width: 260
VWidth: 260
Flags: HW
LayerCount: 2
UndoRedoHistory
Layer: 0
Undoes
UndoOperation
Index: 0
Type: 1
WasModified: 1
WasOrder2: 0
Layer: 2
Width: 209
VWidth: 209
LBearingChange: 0
UnicodeEnc: 0
InstructionsLength: 0
EndUndoOperation
UndoOperation
Index: 1
Type: 1
WasModified: 0
WasOrder2: 0
Layer: 2
Width: 512
VWidth: 512
LBearingChange: 0
UnicodeEnc: 0
InstructionsLength: 0
EndUndoOperation
EndUndoes
Redoes
EndRedoes
EndUndoRedoHistory
UndoRedoHistory
Layer: 1
Undoes
UndoOperation
Index: 0
Type: 3
WasModified: 1
WasOrder2: 0
Layer: 2
EndUndoOperation
UndoOperation
Index: 1
Type: 3
WasModified: 0
WasOrder2: 0
Layer: 2
EndUndoOperation
UndoOperation
Index: 2
Type: 3
WasModified: 0
WasOrder2: 0
Layer: 2
EndUndoOperation
EndUndoes
Redoes
EndRedoes
EndUndoRedoHistory
Fore
SplineSet
101 125 m 1
 130 105 l 1
 101 85 l 1
 101 95 l 1
 80 95 l 1
 80 116 l 1
 101 116 l 1
 101 125 l 1
97 132 m 1
 136 105 l 1
 97 79 l 1
 97 91 l 1
 69 91 l 1
 69 119 l 1
 97 119 l 1
 97 132 l 1
207 55 m 1
 207 175 l 1
 55 175 l 1
 55 55 l 1
 207 55 l 1
175 251 m 1
 196 251 l 1
 196 230 l 1
 207 230 l 2
 213 230 217 227 222 222 c 128
 227 217 230 213 230 207 c 2
 230 55 l 2
 230 49 227 45 222 40 c 128
 217 35 213 32 207 32 c 2
 55 32 l 2
 49 32 43 35 39 40 c 128
 35 45 32 49 32 55 c 2
 32 207 l 2
 32 213 35 217 39 222 c 128
 43 227 49 230 55 230 c 2
 65 230 l 1
 65 251 l 1
 87 251 l 1
 87 230 l 1
 175 230 l 1
 175 251 l 1
190 131 m 1
 190 76 l 1
 135 76 l 1
 135 131 l 1
 190 131 l 1
EndSplineSet
EndChar

StartChar: l
Encoding: 108 108 50
Width: 260
VWidth: 260
Flags: HW
LayerCount: 2
UndoRedoHistory
Layer: 0
Undoes
UndoOperation
Index: 0
Type: 1
WasModified: 1
WasOrder2: 0
Layer: 2
Width: 209
VWidth: 209
LBearingChange: 0
UnicodeEnc: 0
InstructionsLength: 0
EndUndoOperation
UndoOperation
Index: 1
Type: 1
WasModified: 0
WasOrder2: 0
Layer: 2
Width: 512
VWidth: 512
LBearingChange: 0
UnicodeEnc: 0
InstructionsLength: 0
EndUndoOperation
EndUndoes
Redoes
EndRedoes
EndUndoRedoHistory
UndoRedoHistory
Layer: 1
Undoes
UndoOperation
Index: 0
Type: 3
WasModified: 1
WasOrder2: 0
Layer: 2
EndUndoOperation
UndoOperation
Index: 1
Type: 3
WasModified: 0
WasOrder2: 0
Layer: 2
EndUndoOperation
UndoOperation
Index: 2
Type: 3
WasModified: 0
WasOrder2: 0
Layer: 2
EndUndoOperation
EndUndoes
Redoes
EndRedoes
EndUndoRedoHistory
Fore
SplineSet
156 132 m 5
 196 105 l 5
 156 79 l 5
 156 91 l 5
 127 91 l 5
 127 119 l 5
 156 119 l 5
 156 132 l 5
207 55 m 1
 207 175 l 1
 55 175 l 1
 55 55 l 1
 207 55 l 1
175 251 m 1
 196 251 l 1
 196 230 l 1
 207 230 l 2
 213 230 217 227 222 222 c 128
 227 217 230 213 230 207 c 2
 230 55 l 2
 230 49 227 45 222 40 c 128
 217 35 213 32 207 32 c 2
 55 32 l 2
 49 32 43 35 39 40 c 128
 35 45 32 49 32 55 c 2
 32 207 l 2
 32 213 35 217 39 222 c 128
 43 227 49 230 55 230 c 2
 65 230 l 1
 65 251 l 1
 87 251 l 1
 87 230 l 1
 175 230 l 1
 175 251 l 1
125 131 m 1
 125 76 l 1
 70 76 l 1
 70 131 l 1
 125 131 l 1
EndSplineSet
EndChar

StartChar: m
Encoding: 109 109 51
Width: 260
VWidth: 260
Flags: HW
LayerCount: 2
UndoRedoHistory
Layer: 0
Undoes
UndoOperation
Index: 0
Type: 1
WasModified: 1
WasOrder2: 0
Layer: 2
Width: 209
VWidth: 209
LBearingChange: 0
UnicodeEnc: 0
InstructionsLength: 0
EndUndoOperation
UndoOperation
Index: 1
Type: 1
WasModified: 0
WasOrder2: 0
Layer: 2
Width: 512
VWidth: 512
LBearingChange: 0
UnicodeEnc: 0
InstructionsLength: 0
EndUndoOperation
EndUndoes
Redoes
EndRedoes
EndUndoRedoHistory
UndoRedoHistory
Layer: 1
Undoes
UndoOperation
Index: 0
Type: 3
WasModified: 1
WasOrder2: 0
Layer: 2
EndUndoOperation
UndoOperation
Index: 1
Type: 3
WasModified: 0
WasOrder2: 0
Layer: 2
EndUndoOperation
UndoOperation
Index: 2
Type: 3
WasModified: 0
WasOrder2: 0
Layer: 2
EndUndoOperation
EndUndoes
Redoes
EndRedoes
EndUndoRedoHistory
Fore
SplineSet
131 74 m 128
 142 74 152 78 159 85 c 128
 166 92 171 103 171 114 c 128
 171 125 166 134 159 141 c 128
 152 148 142 154 131 154 c 128
 120 154 109 148 102 141 c 128
 95 134 91 125 91 114 c 128
 91 103 95 92 102 85 c 128
 109 78 120 74 131 74 c 128
131 164 m 128
 145 164 156 159 166 149 c 128
 176 139 181 128 181 114 c 128
 181 100 176 89 166 79 c 128
 156 69 145 64 131 64 c 128
 117 64 106 69 96 79 c 128
 86 89 81 100 81 114 c 128
 81 128 86 139 96 149 c 128
 106 159 117 164 131 164 c 128
207 55 m 1
 207 175 l 1
 55 175 l 1
 55 55 l 1
 207 55 l 1
175 251 m 1
 196 251 l 1
 196 230 l 1
 207 230 l 2
 213 230 217 227 222 222 c 128
 227 217 230 213 230 207 c 2
 230 55 l 2
 230 49 227 45 222 40 c 128
 217 35 213 32 207 32 c 2
 55 32 l 2
 49 32 43 35 39 40 c 128
 35 45 32 49 32 55 c 2
 32 207 l 2
 32 213 35 217 39 222 c 128
 43 227 49 230 55 230 c 2
 65 230 l 1
 65 251 l 1
 87 251 l 1
 87 230 l 1
 175 230 l 1
 175 251 l 1
EndSplineSet
EndChar

StartChar: n
Encoding: 110 110 52
Width: 260
VWidth: 260
Flags: HW
LayerCount: 2
UndoRedoHistory
Layer: 0
Undoes
UndoOperation
Index: 0
Type: 1
WasModified: 1
WasOrder2: 0
Layer: 2
Width: 209
VWidth: 209
LBearingChange: 0
UnicodeEnc: 0
InstructionsLength: 0
EndUndoOperation
UndoOperation
Index: 1
Type: 1
WasModified: 0
WasOrder2: 0
Layer: 2
Width: 512
VWidth: 512
LBearingChange: 0
UnicodeEnc: 0
InstructionsLength: 0
EndUndoOperation
EndUndoes
Redoes
EndRedoes
EndUndoRedoHistory
UndoRedoHistory
Layer: 1
Undoes
UndoOperation
Index: 0
Type: 3
WasModified: 1
WasOrder2: 0
Layer: 2
EndUndoOperation
UndoOperation
Index: 1
Type: 3
WasModified: 0
WasOrder2: 0
Layer: 2
EndUndoOperation
UndoOperation
Index: 2
Type: 3
WasModified: 0
WasOrder2: 0
Layer: 2
EndUndoOperation
EndUndoes
Redoes
EndRedoes
EndUndoRedoHistory
Fore
SplineSet
155 84 m 5
 189 117 l 5
 184 122 l 5
 155 95 l 5
 142 107 l 5
 137 102 l 5
 155 84 l 5
101 125 m 1
 130 105 l 1
 101 85 l 1
 101 95 l 1
 80 95 l 1
 80 116 l 1
 101 116 l 1
 101 125 l 1
97 132 m 1
 136 105 l 1
 97 79 l 1
 97 91 l 1
 69 91 l 1
 69 119 l 1
 97 119 l 1
 97 132 l 1
207 55 m 1
 207 175 l 1
 55 175 l 1
 55 55 l 1
 207 55 l 1
175 251 m 1
 196 251 l 1
 196 230 l 1
 207 230 l 2
 213 230 217 227 222 222 c 128
 227 217 230 213 230 207 c 2
 230 55 l 2
 230 49 227 45 222 40 c 128
 217 35 213 32 207 32 c 2
 55 32 l 2
 49 32 43 35 39 40 c 128
 35 45 32 49 32 55 c 2
 32 207 l 2
 32 213 35 217 39 222 c 128
 43 227 49 230 55 230 c 2
 65 230 l 1
 65 251 l 1
 87 251 l 1
 87 230 l 1
 175 230 l 1
 175 251 l 1
190 131 m 1
 190 76 l 1
 135 76 l 1
 135 131 l 1
 190 131 l 1
EndSplineSet
EndChar

StartChar: o
Encoding: 111 111 53
Width: 260
VWidth: 260
Flags: HW
LayerCount: 2
UndoRedoHistory
Layer: 0
Undoes
UndoOperation
Index: 0
Type: 1
WasModified: 1
WasOrder2: 0
Layer: 2
Width: 209
VWidth: 209
LBearingChange: 0
UnicodeEnc: 0
InstructionsLength: 0
EndUndoOperation
UndoOperation
Index: 1
Type: 1
WasModified: 0
WasOrder2: 0
Layer: 2
Width: 512
VWidth: 512
LBearingChange: 0
UnicodeEnc: 0
InstructionsLength: 0
EndUndoOperation
EndUndoes
Redoes
EndRedoes
EndUndoRedoHistory
UndoRedoHistory
Layer: 1
Undoes
UndoOperation
Index: 0
Type: 3
WasModified: 1
WasOrder2: 0
Layer: 2
EndUndoOperation
UndoOperation
Index: 1
Type: 3
WasModified: 0
WasOrder2: 0
Layer: 2
EndUndoOperation
UndoOperation
Index: 2
Type: 3
WasModified: 0
WasOrder2: 0
Layer: 2
EndUndoOperation
EndUndoes
Redoes
EndRedoes
EndUndoRedoHistory
Fore
SplineSet
207 230 m 2
 55 230 l 2
 49 230 43 228 39 224 c 128
 35 220 32 213 32 207 c 2
 32 55 l 2
 32 49 35 43 39 39 c 128
 43 35 49 32 55 32 c 2
 207 32 l 2
 213 32 220 35 224 39 c 128
 228 43 230 49 230 55 c 2
 230 207 l 2
 230 213 228 220 224 224 c 128
 220 228 213 230 207 230 c 2
207 55 m 1
 55 55 l 1
 55 186 l 1
 207 186 l 1
 207 55 l 1
147 120 m 4
 147 115 146 111 142 109 c 132
 138 107 136 104 131 104 c 260
 126 104 124 107 120 109 c 132
 116 111 115 115 115 120 c 4
 115 125 116 128 120 132 c 132
 124 136 126 136 131 136 c 260
 136 136 138 136 142 132 c 132
 146 128 147 125 147 120 c 4
131 164 m 260
 121 164 113 163 104 159 c 132
 95 155 86 148 80 142 c 132
 74 136 69 129 65 120 c 5
 69 111 74 103 80 97 c 132
 86 91 95 86 104 82 c 132
 113 78 121 76 131 76 c 260
 141 76 150 78 159 82 c 132
 168 86 176 91 182 97 c 132
 188 103 192 111 196 120 c 5
 192 129 188 136 182 142 c 132
 176 148 168 155 159 159 c 132
 150 163 141 164 131 164 c 260
131 92 m 260
 124 92 117 96 112 101 c 132
 107 106 104 113 104 120 c 260
 104 127 107 135 112 140 c 132
 117 145 124 147 131 147 c 260
 138 147 145 145 150 140 c 132
 155 135 159 127 159 120 c 260
 159 113 155 106 150 101 c 132
 145 96 138 92 131 92 c 260
EndSplineSet
EndChar

StartChar: p
Encoding: 112 112 54
Width: 260
VWidth: 260
Flags: HW
LayerCount: 2
UndoRedoHistory
Layer: 0
Undoes
UndoOperation
Index: 0
Type: 1
WasModified: 1
WasOrder2: 0
Layer: 2
Width: 209
VWidth: 209
LBearingChange: 0
UnicodeEnc: 0
InstructionsLength: 0
EndUndoOperation
UndoOperation
Index: 1
Type: 1
WasModified: 0
WasOrder2: 0
Layer: 2
Width: 512
VWidth: 512
LBearingChange: 0
UnicodeEnc: 0
InstructionsLength: 0
EndUndoOperation
EndUndoes
Redoes
EndRedoes
EndUndoRedoHistory
UndoRedoHistory
Layer: 1
Undoes
UndoOperation
Index: 0
Type: 3
WasModified: 1
WasOrder2: 0
Layer: 2
EndUndoOperation
UndoOperation
Index: 1
Type: 3
WasModified: 0
WasOrder2: 0
Layer: 2
EndUndoOperation
UndoOperation
Index: 2
Type: 3
WasModified: 0
WasOrder2: 0
Layer: 2
EndUndoOperation
EndUndoes
Redoes
EndRedoes
EndUndoRedoHistory
Fore
SplineSet
196 219 m 5
 240 175 l 5
 207 175 l 5
 207 99 l 6
 207 87 204 76 195 67 c 132
 186 58 176 55 164 55 c 132
 152 55 143 58 134 67 c 132
 125 76 120 87 120 99 c 6
 120 175 l 6
 120 181 119 185 114 190 c 132
 109 195 105 196 99 196 c 132
 93 196 87 195 82 190 c 132
 77 185 76 181 76 175 c 6
 76 99 l 5
 109 99 l 5
 65 55 l 5
 22 99 l 5
 55 99 l 5
 55 175 l 6
 55 187 58 197 67 206 c 132
 76 215 87 219 99 219 c 132
 111 219 120 215 129 206 c 132
 138 197 142 187 142 175 c 6
 142 99 l 6
 142 93 144 87 149 82 c 132
 154 77 158 76 164 76 c 132
 170 76 175 77 180 82 c 132
 185 87 186 93 186 99 c 6
 186 175 l 5
 154 175 l 5
 196 219 l 5
EndSplineSet
EndChar

StartChar: q
Encoding: 113 113 55
Width: 260
VWidth: 260
Flags: HW
LayerCount: 2
UndoRedoHistory
Layer: 0
Undoes
UndoOperation
Index: 0
Type: 1
WasModified: 1
WasOrder2: 0
Layer: 2
Width: 209
VWidth: 209
LBearingChange: 0
UnicodeEnc: 0
InstructionsLength: 0
EndUndoOperation
UndoOperation
Index: 1
Type: 1
WasModified: 0
WasOrder2: 0
Layer: 2
Width: 512
VWidth: 512
LBearingChange: 0
UnicodeEnc: 0
InstructionsLength: 0
EndUndoOperation
EndUndoes
Redoes
EndRedoes
EndUndoRedoHistory
UndoRedoHistory
Layer: 1
Undoes
UndoOperation
Index: 0
Type: 3
WasModified: 1
WasOrder2: 0
Layer: 2
EndUndoOperation
UndoOperation
Index: 1
Type: 3
WasModified: 0
WasOrder2: 0
Layer: 2
EndUndoOperation
UndoOperation
Index: 2
Type: 3
WasModified: 0
WasOrder2: 0
Layer: 2
EndUndoOperation
EndUndoes
Redoes
EndRedoes
EndUndoRedoHistory
Fore
SplineSet
226 185 m 6
 206 165 l 5
 165 206 l 5
 185 226 l 6
 187 228 192 230 194 230 c 132
 196 230 199 228 201 226 c 6
 226 201 l 6
 228 199 230 196 230 194 c 132
 230 192 228 187 226 185 c 6
32 74 m 5
 154 195 l 5
 195 154 l 5
 74 32 l 5
 32 32 l 5
 32 74 l 5
EndSplineSet
EndChar

StartChar: r
Encoding: 114 114 56
Width: 260
VWidth: 260
Flags: HW
LayerCount: 2
UndoRedoHistory
Layer: 0
Undoes
UndoOperation
Index: 0
Type: 1
WasModified: 1
WasOrder2: 0
Layer: 2
Width: 209
VWidth: 209
LBearingChange: 0
UnicodeEnc: 0
InstructionsLength: 0
EndUndoOperation
UndoOperation
Index: 1
Type: 1
WasModified: 0
WasOrder2: 0
Layer: 2
Width: 512
VWidth: 512
LBearingChange: 0
UnicodeEnc: 0
InstructionsLength: 0
EndUndoOperation
EndUndoes
Redoes
EndRedoes
EndUndoRedoHistory
UndoRedoHistory
Layer: 1
Undoes
UndoOperation
Index: 0
Type: 3
WasModified: 1
WasOrder2: 0
Layer: 2
EndUndoOperation
UndoOperation
Index: 1
Type: 3
WasModified: 0
WasOrder2: 0
Layer: 2
EndUndoOperation
UndoOperation
Index: 2
Type: 3
WasModified: 0
WasOrder2: 0
Layer: 2
EndUndoOperation
EndUndoes
Redoes
EndRedoes
EndUndoRedoHistory
Fore
SplineSet
175 120 m 1
 131 76 l 1
 87 120 l 1
 120 120 l 1
 120 175 l 1
 142 175 l 1
 142 120 l 1
 175 120 l 1
186 55 m 1
 186 207 l 1
 76 207 l 1
 76 55 l 1
 186 55 l 1
186 251 m 2
 192 251 197 249 201 245 c 128
 205 241 207 236 207 230 c 2
 207 32 l 2
 207 26 205 22 201 17 c 128
 197 12 192 11 186 11 c 2
 76 11 l 2
 70 11 65 12 61 17 c 128
 57 22 55 26 55 32 c 2
 55 230 l 2
 55 236 57 240 61 245 c 128
 65 250 70 251 76 251 c 2
 186 251 l 2
EndSplineSet
EndChar

StartChar: s
Encoding: 115 115 57
Width: 260
VWidth: 260
Flags: HW
LayerCount: 2
UndoRedoHistory
Layer: 0
Undoes
UndoOperation
Index: 0
Type: 1
WasModified: 1
WasOrder2: 0
Layer: 2
Width: 209
VWidth: 209
LBearingChange: 0
UnicodeEnc: 0
InstructionsLength: 0
EndUndoOperation
UndoOperation
Index: 1
Type: 1
WasModified: 0
WasOrder2: 0
Layer: 2
Width: 512
VWidth: 512
LBearingChange: 0
UnicodeEnc: 0
InstructionsLength: 0
EndUndoOperation
EndUndoes
Redoes
EndRedoes
EndUndoRedoHistory
UndoRedoHistory
Layer: 1
Undoes
UndoOperation
Index: 0
Type: 3
WasModified: 1
WasOrder2: 0
Layer: 2
EndUndoOperation
UndoOperation
Index: 1
Type: 3
WasModified: 0
WasOrder2: 0
Layer: 2
EndUndoOperation
UndoOperation
Index: 2
Type: 3
WasModified: 0
WasOrder2: 0
Layer: 2
EndUndoOperation
EndUndoes
Redoes
EndRedoes
EndUndoRedoHistory
Fore
SplineSet
109 76 m 5
 207 175 l 5
 192 191 l 5
 109 107 l 5
 70 146 l 5
 55 131 l 5
 109 76 l 5
207 230 m 6
 213 230 220 227 224 222 c 132
 228 217 230 213 230 207 c 6
 230 55 l 6
 230 49 228 45 224 40 c 132
 220 35 213 32 207 32 c 6
 55 32 l 6
 49 32 43 35 39 40 c 132
 35 45 32 49 32 55 c 6
 32 207 l 6
 32 213 35 217 39 222 c 132
 43 227 49 230 55 230 c 6
 207 230 l 6
EndSplineSet
EndChar

StartChar: t
Encoding: 116 116 58
Width: 260
VWidth: 260
Flags: HW
LayerCount: 2
UndoRedoHistory
Layer: 0
Undoes
UndoOperation
Index: 0
Type: 1
WasModified: 1
WasOrder2: 0
Layer: 2
Width: 209
VWidth: 209
LBearingChange: 0
UnicodeEnc: 0
InstructionsLength: 0
EndUndoOperation
UndoOperation
Index: 1
Type: 1
WasModified: 0
WasOrder2: 0
Layer: 2
Width: 512
VWidth: 512
LBearingChange: 0
UnicodeEnc: 0
InstructionsLength: 0
EndUndoOperation
EndUndoes
Redoes
EndRedoes
EndUndoRedoHistory
UndoRedoHistory
Layer: 1
Undoes
UndoOperation
Index: 0
Type: 3
WasModified: 1
WasOrder2: 0
Layer: 2
EndUndoOperation
UndoOperation
Index: 1
Type: 3
WasModified: 0
WasOrder2: 0
Layer: 2
EndUndoOperation
UndoOperation
Index: 2
Type: 3
WasModified: 0
WasOrder2: 0
Layer: 2
EndUndoOperation
EndUndoes
Redoes
EndRedoes
EndUndoRedoHistory
Fore
SplineSet
76 240 m 1
 76 125 l 1
 76 134 83 140 95 145 c 128
 107 150 120 154 131 154 c 128
 142 154 155 150 167 145 c 128
 179 140 186 134 186 125 c 1
 186 240 l 1
 76 240 l 1
186 262 m 2
 192 262 197 261 201 256 c 128
 205 251 207 246 207 240 c 2
 207 87 l 2
 207 81 205 77 201 72 c 128
 197 67 192 65 186 65 c 2
 109 65 l 1
 142 32 l 1
 109 0 l 1
 109 22 l 1
 55 22 l 1
 55 44 l 1
 109 44 l 1
 109 65 l 1
 76 65 l 2
 70 65 65 67 61 72 c 128
 57 77 55 81 55 87 c 2
 55 240 l 2
 55 246 57 251 61 256 c 128
 65 261 70 262 76 262 c 2
 186 262 l 2
131 175 m 128
 125 175 120 176 116 181 c 128
 112 186 110 190 110 196 c 128
 110 202 112 207 116 212 c 128
 120 217 125 219 131 219 c 128
 137 219 141 217 146 212 c 128
 151 207 154 202 154 196 c 128
 154 190 151 186 146 181 c 128
 141 176 137 175 131 175 c 128
154 44 m 1
 207 44 l 1
 207 22 l 1
 154 22 l 1
 154 44 l 1
EndSplineSet
EndChar

StartChar: u
Encoding: 117 117 59
Width: 260
VWidth: 260
Flags: HW
LayerCount: 2
UndoRedoHistory
Layer: 0
Undoes
UndoOperation
Index: 0
Type: 1
WasModified: 1
WasOrder2: 0
Layer: 2
Width: 209
VWidth: 209
LBearingChange: 0
UnicodeEnc: 0
InstructionsLength: 0
EndUndoOperation
UndoOperation
Index: 1
Type: 1
WasModified: 0
WasOrder2: 0
Layer: 2
Width: 512
VWidth: 512
LBearingChange: 0
UnicodeEnc: 0
InstructionsLength: 0
EndUndoOperation
EndUndoes
Redoes
EndRedoes
EndUndoRedoHistory
UndoRedoHistory
Layer: 1
Undoes
UndoOperation
Index: 0
Type: 3
WasModified: 1
WasOrder2: 0
Layer: 2
EndUndoOperation
UndoOperation
Index: 1
Type: 3
WasModified: 0
WasOrder2: 0
Layer: 2
EndUndoOperation
UndoOperation
Index: 2
Type: 3
WasModified: 0
WasOrder2: 0
Layer: 2
EndUndoOperation
EndUndoes
Redoes
EndRedoes
EndUndoRedoHistory
Fore
SplineSet
122 115 m 1
 104 90 l 5
 104 109 l 5
 60 109 l 5
 60 121 l 5
 104 121 l 5
 104 139 l 5
 122 115 l 1
159 96 m 5
 192 129 l 5
 187 135 l 5
 159 106 l 5
 146 120 l 5
 141 115 l 5
 159 96 l 5
192 147 m 6
 194 147 196 146 197 145 c 132
 198 144 200 142 200 140 c 6
 200 89 l 6
 200 87 198 85 197 84 c 132
 196 83 194 81 192 81 c 6
 141 81 l 6
 139 81 137 83 136 84 c 132
 135 85 134 87 134 89 c 6
 134 140 l 6
 134 142 135 144 136 145 c 132
 137 146 139 147 141 147 c 6
 192 147 l 6
207 55 m 1
 207 175 l 1
 55 175 l 1
 55 55 l 1
 207 55 l 1
175 251 m 1
 196 251 l 1
 196 230 l 1
 207 230 l 2
 213 230 217 227 222 222 c 128
 227 217 230 213 230 207 c 2
 230 55 l 2
 230 49 227 45 222 40 c 128
 217 35 213 32 207 32 c 2
 55 32 l 2
 49 32 43 35 39 40 c 128
 35 45 32 49 32 55 c 2
 32 207 l 2
 32 213 35 217 39 222 c 128
 43 227 49 230 55 230 c 2
 65 230 l 1
 65 251 l 1
 87 251 l 1
 87 230 l 1
 175 230 l 1
 175 251 l 1
EndSplineSet
EndChar

StartChar: v
Encoding: 118 118 60
Width: 260
VWidth: 260
Flags: HW
LayerCount: 2
UndoRedoHistory
Layer: 0
Undoes
UndoOperation
Index: 0
Type: 1
WasModified: 1
WasOrder2: 0
Layer: 2
Width: 209
VWidth: 209
LBearingChange: 0
UnicodeEnc: 0
InstructionsLength: 0
EndUndoOperation
UndoOperation
Index: 1
Type: 1
WasModified: 0
WasOrder2: 0
Layer: 2
Width: 512
VWidth: 512
LBearingChange: 0
UnicodeEnc: 0
InstructionsLength: 0
EndUndoOperation
EndUndoes
Redoes
EndRedoes
EndUndoRedoHistory
UndoRedoHistory
Layer: 1
Undoes
UndoOperation
Index: 0
Type: 3
WasModified: 1
WasOrder2: 0
Layer: 2
EndUndoOperation
UndoOperation
Index: 1
Type: 3
WasModified: 0
WasOrder2: 0
Layer: 2
EndUndoOperation
UndoOperation
Index: 2
Type: 3
WasModified: 0
WasOrder2: 0
Layer: 2
EndUndoOperation
EndUndoes
Redoes
EndRedoes
EndUndoRedoHistory
Fore
SplineSet
209 209 m 1
 230 188 240 161 240 131 c 0
 240 101 230 75 209 54 c 128
 188 33 161 22 131 22 c 128
 101 22 75 33 54 54 c 128
 33 75 22 101 22 131 c 128
 22 161 33 188 54 209 c 128
 75 230 101 240 131 240 c 2
 142 240 l 1
 142 150 l 1
 149 146 154 140 154 131 c 0
 154 125 151 121 146 116 c 128
 141 111 137 109 131 109 c 128
 125 109 121 111 116 116 c 128
 111 121 109 125 109 131 c 0
 109 140 113 146 120 150 c 1
 120 174 l 1
 110 172 102 164 96 157 c 128
 90 150 87 141 87 131 c 0
 87 119 91 109 100 100 c 128
 109 91 119 87 131 87 c 128
 143 87 153 91 162 100 c 128
 171 109 175 119 175 131 c 0
 175 142 171 153 162 162 c 1
 177 177 l 1
 189 165 196 148 196 131 c 0
 196 114 189 97 177 85 c 128
 165 73 148 65 131 65 c 128
 114 65 97 73 85 85 c 128
 73 97 65 114 65 131 c 0
 65 147 71 162 81 174 c 128
 91 186 104 194 120 196 c 1
 120 217 l 1
 99 215 81 205 66 189 c 128
 51 173 44 153 44 131 c 0
 44 107 53 87 70 70 c 128
 87 53 107 44 131 44 c 128
 155 44 175 53 192 70 c 128
 209 87 219 107 219 131 c 0
 219 155 211 177 194 194 c 1
 209 209 l 1
EndSplineSet
EndChar

StartChar: w
Encoding: 119 119 61
Width: 260
VWidth: 260
Flags: HW
LayerCount: 2
UndoRedoHistory
Layer: 0
Undoes
UndoOperation
Index: 0
Type: 1
WasModified: 1
WasOrder2: 0
Layer: 2
Width: 209
VWidth: 209
LBearingChange: 0
UnicodeEnc: 0
InstructionsLength: 0
EndUndoOperation
UndoOperation
Index: 1
Type: 1
WasModified: 0
WasOrder2: 0
Layer: 2
Width: 512
VWidth: 512
LBearingChange: 0
UnicodeEnc: 0
InstructionsLength: 0
EndUndoOperation
EndUndoes
Redoes
EndRedoes
EndUndoRedoHistory
UndoRedoHistory
Layer: 1
Undoes
UndoOperation
Index: 0
Type: 3
WasModified: 1
WasOrder2: 0
Layer: 2
EndUndoOperation
UndoOperation
Index: 1
Type: 3
WasModified: 0
WasOrder2: 0
Layer: 2
EndUndoOperation
UndoOperation
Index: 2
Type: 3
WasModified: 0
WasOrder2: 0
Layer: 2
EndUndoOperation
EndUndoes
Redoes
EndRedoes
EndUndoRedoHistory
Fore
SplineSet
230 164 m 5
 186 120 l 5
 186 154 l 5
 109 154 l 5
 109 175 l 5
 186 175 l 5
 186 207 l 5
 230 164 l 5
76 142 m 1
 76 109 l 1
 154 109 l 1
 154 87 l 1
 76 87 l 1
 76 55 l 1
 32 99 l 1
 76 142 l 1
EndSplineSet
EndChar

StartChar: x
Encoding: 120 120 62
Width: 260
VWidth: 260
Flags: HW
LayerCount: 2
UndoRedoHistory
Layer: 0
Undoes
UndoOperation
Index: 0
Type: 1
WasModified: 1
WasOrder2: 0
Layer: 2
Width: 209
VWidth: 209
LBearingChange: 0
UnicodeEnc: 0
InstructionsLength: 0
EndUndoOperation
UndoOperation
Index: 1
Type: 1
WasModified: 0
WasOrder2: 0
Layer: 2
Width: 512
VWidth: 512
LBearingChange: 0
UnicodeEnc: 0
InstructionsLength: 0
EndUndoOperation
EndUndoes
Redoes
EndRedoes
EndUndoRedoHistory
UndoRedoHistory
Layer: 1
Undoes
UndoOperation
Index: 0
Type: 3
WasModified: 1
WasOrder2: 0
Layer: 2
EndUndoOperation
UndoOperation
Index: 1
Type: 3
WasModified: 0
WasOrder2: 0
Layer: 2
EndUndoOperation
UndoOperation
Index: 2
Type: 3
WasModified: 0
WasOrder2: 0
Layer: 2
EndUndoOperation
EndUndoes
Redoes
EndRedoes
EndUndoRedoHistory
Fore
SplineSet
115 104 m 5
 169 157 l 5
 181 146 l 5
 115 80 l 5
 80 115 l 5
 91 126 l 5
 115 104 l 5
131 44 m 132
 152 44 170 51 185 66 c 132
 200 81 207 99 207 120 c 132
 207 141 200 160 185 175 c 132
 170 190 152 196 131 196 c 132
 110 196 92 190 77 175 c 132
 62 160 55 141 55 120 c 132
 55 99 62 81 77 66 c 132
 92 51 110 44 131 44 c 132
131 219 m 132
 158 219 182 209 201 190 c 132
 220 171 230 147 230 120 c 132
 230 93 220 70 201 51 c 132
 182 32 158 22 131 22 c 132
 104 22 80 32 61 51 c 132
 42 70 32 93 32 120 c 132
 32 147 42 171 61 190 c 132
 80 209 104 219 131 219 c 132
86 225 m 5
 36 184 l 5
 22 200 l 5
 72 242 l 5
 86 225 l 5
240 200 m 5
 226 182 l 5
 176 225 l 5
 190 242 l 5
 240 200 l 5
EndSplineSet
EndChar

StartChar: A
Encoding: 65 65 63
Width: 260
VWidth: 260
Flags: HW
LayerCount: 2
UndoRedoHistory
Layer: 0
Undoes
UndoOperation
Index: 0
Type: 1
WasModified: 1
WasOrder2: 0
Layer: 2
Width: 209
VWidth: 209
LBearingChange: 0
UnicodeEnc: 0
InstructionsLength: 0
EndUndoOperation
UndoOperation
Index: 1
Type: 1
WasModified: 0
WasOrder2: 0
Layer: 2
Width: 512
VWidth: 512
LBearingChange: 0
UnicodeEnc: 0
InstructionsLength: 0
EndUndoOperation
EndUndoes
Redoes
EndRedoes
EndUndoRedoHistory
UndoRedoHistory
Layer: 1
Undoes
UndoOperation
Index: 0
Type: 3
WasModified: 1
WasOrder2: 0
Layer: 2
EndUndoOperation
UndoOperation
Index: 1
Type: 3
WasModified: 0
WasOrder2: 0
Layer: 2
EndUndoOperation
UndoOperation
Index: 2
Type: 3
WasModified: 0
WasOrder2: 0
Layer: 2
EndUndoOperation
EndUndoes
Redoes
EndRedoes
EndUndoRedoHistory
Fore
SplineSet
120 6 m 5
 120 22 l 5
 199 22 l 5
 199 6 l 5
 120 6 l 5
66 47 m 5
 197 47 l 5
 197 31 l 5
 66 31 l 5
 66 47 l 5
131 171 m 5
 175 215 l 5
 175 254 l 5
 87 254 l 5
 87 215 l 5
 131 171 l 5
65 275 m 5
 196 275 l 5
 196 209 l 5
 154 165 l 5
 196 122 l 5
 196 56 l 5
 65 56 l 5
 65 122 l 5
 109 165 l 5
 65 209 l 5
 65 275 l 5
EndSplineSet
EndChar

StartChar: B
Encoding: 66 66 64
Width: 260
VWidth: 260
Flags: HW
LayerCount: 2
UndoRedoHistory
Layer: 0
Undoes
UndoOperation
Index: 0
Type: 1
WasModified: 1
WasOrder2: 0
Layer: 2
Width: 209
VWidth: 209
LBearingChange: 0
UnicodeEnc: 0
InstructionsLength: 0
EndUndoOperation
UndoOperation
Index: 1
Type: 1
WasModified: 0
WasOrder2: 0
Layer: 2
Width: 512
VWidth: 512
LBearingChange: 0
UnicodeEnc: 0
InstructionsLength: 0
EndUndoOperation
EndUndoes
Redoes
EndRedoes
EndUndoRedoHistory
UndoRedoHistory
Layer: 1
Undoes
UndoOperation
Index: 0
Type: 3
WasModified: 1
WasOrder2: 0
Layer: 2
EndUndoOperation
UndoOperation
Index: 1
Type: 3
WasModified: 0
WasOrder2: 0
Layer: 2
EndUndoOperation
UndoOperation
Index: 2
Type: 3
WasModified: 0
WasOrder2: 0
Layer: 2
EndUndoOperation
EndUndoes
Redoes
EndRedoes
EndUndoRedoHistory
Fore
SplineSet
127 180 m 1
 175 180 l 1
 175 219 l 1
 87 219 l 1
 87 180 l 1
 127 180 l 1
175 82 m 1
 131 125 l 1
 87 82 l 1
 87 82 l 1
 175 82 l 5
 175 82 l 1
65 240 m 1
 196 240 l 1
 196 175 l 1
 154 131 l 1
 196 87 l 1
 196 22 l 1
 65 22 l 1
 65 87 l 1
 109 131 l 1
 65 175 l 1
 65 240 l 1
EndSplineSet
EndChar

StartChar: C
Encoding: 67 67 65
Width: 260
VWidth: 260
Flags: HW
LayerCount: 2
UndoRedoHistory
Layer: 0
Undoes
UndoOperation
Index: 0
Type: 1
WasModified: 1
WasOrder2: 0
Layer: 2
Width: 209
VWidth: 209
LBearingChange: 0
UnicodeEnc: 0
InstructionsLength: 0
EndUndoOperation
UndoOperation
Index: 1
Type: 1
WasModified: 0
WasOrder2: 0
Layer: 2
Width: 512
VWidth: 512
LBearingChange: 0
UnicodeEnc: 0
InstructionsLength: 0
EndUndoOperation
EndUndoes
Redoes
EndRedoes
EndUndoRedoHistory
UndoRedoHistory
Layer: 1
Undoes
UndoOperation
Index: 0
Type: 3
WasModified: 1
WasOrder2: 0
Layer: 2
EndUndoOperation
UndoOperation
Index: 1
Type: 3
WasModified: 0
WasOrder2: 0
Layer: 2
EndUndoOperation
UndoOperation
Index: 2
Type: 3
WasModified: 0
WasOrder2: 0
Layer: 2
EndUndoOperation
EndUndoes
Redoes
EndRedoes
EndUndoRedoHistory
Fore
SplineSet
119 250 m 1
 119 266 l 1
 187 266 l 5
 187 250 l 5
 119 250 l 1
77 291 m 1
 187 291 l 1
 187 275 l 1
 77 275 l 1
 77 291 l 1
131 136 m 1
 175 180 l 1
 175 219 l 1
 87 219 l 1
 87 180 l 1
 131 136 l 1
65 240 m 1
 196 240 l 1
 196 175 l 1
 154 131 l 1
 196 87 l 1
 196 22 l 1
 65 22 l 1
 65 87 l 1
 109 131 l 1
 65 175 l 1
 65 240 l 1
EndSplineSet
EndChar

StartChar: uni001A
Encoding: 26 26 66
Width: 260
VWidth: 260
Flags: HW
LayerCount: 2
UndoRedoHistory
Layer: 0
Undoes
UndoOperation
Index: 0
Type: 1
WasModified: 1
WasOrder2: 0
Layer: 2
Width: 209
VWidth: 209
LBearingChange: 0
UnicodeEnc: 0
InstructionsLength: 0
EndUndoOperation
UndoOperation
Index: 1
Type: 1
WasModified: 0
WasOrder2: 0
Layer: 2
Width: 512
VWidth: 512
LBearingChange: 0
UnicodeEnc: 0
InstructionsLength: 0
EndUndoOperation
EndUndoes
Redoes
EndRedoes
EndUndoRedoHistory
UndoRedoHistory
Layer: 1
Undoes
UndoOperation
Index: 0
Type: 3
WasModified: 1
WasOrder2: 0
Layer: 2
EndUndoOperation
UndoOperation
Index: 1
Type: 3
WasModified: 0
WasOrder2: 0
Layer: 2
EndUndoOperation
UndoOperation
Index: 2
Type: 3
WasModified: 0
WasOrder2: 0
Layer: 2
EndUndoOperation
EndUndoes
Redoes
EndRedoes
EndUndoRedoHistory
Fore
SplineSet
159 155 m 1
 159 175 l 1
 104 175 l 1
 104 155 l 1
 134 155 l 1
 104 117 l 1
 104 99 l 1
 159 99 l 1
 159 117 l 1
 127 117 l 1
 159 155 l 1
196 87 m 1
 219 65 l 1
 219 55 l 1
 44 55 l 1
 44 65 l 1
 65 87 l 1
 65 142 l 2
 65 159 70 174 79 186 c 128
 88 198 100 207 115 211 c 1
 115 219 l 2
 115 224 118 226 120 230 c 128
 122 234 126 235 131 235 c 128
 136 235 140 234 142 230 c 128
 144 226 147 224 147 219 c 2
 147 211 l 1
 162 207 175 198 184 186 c 128
 193 174 196 159 196 142 c 2
 196 87 l 1
131 22 m 0
 125 22 119 25 115 29 c 128
 111 33 109 38 109 44 c 1
 154 44 l 1
 154 38 151 33 146 29 c 128
 141 25 137 22 131 22 c 0
EndSplineSet
EndChar

StartChar: uni001B
Encoding: 27 27 67
Width: 260
VWidth: 260
Flags: HW
LayerCount: 2
UndoRedoHistory
Layer: 0
Undoes
UndoOperation
Index: 0
Type: 1
WasModified: 1
WasOrder2: 0
Layer: 2
Width: 209
VWidth: 209
LBearingChange: 0
UnicodeEnc: 0
InstructionsLength: 0
EndUndoOperation
UndoOperation
Index: 1
Type: 1
WasModified: 0
WasOrder2: 0
Layer: 2
Width: 512
VWidth: 512
LBearingChange: 0
UnicodeEnc: 0
InstructionsLength: 0
EndUndoOperation
EndUndoes
Redoes
EndRedoes
EndUndoRedoHistory
UndoRedoHistory
Layer: 1
Undoes
UndoOperation
Index: 0
Type: 3
WasModified: 1
WasOrder2: 0
Layer: 2
EndUndoOperation
UndoOperation
Index: 1
Type: 3
WasModified: 0
WasOrder2: 0
Layer: 2
EndUndoOperation
UndoOperation
Index: 2
Type: 3
WasModified: 0
WasOrder2: 0
Layer: 2
EndUndoOperation
EndUndoes
Redoes
EndRedoes
EndUndoRedoHistory
Fore
SplineSet
164 240 m 1
 125 240 l 1
 115 251 l 1
 60 251 l 1
 49 240 l 1
 11 240 l 1
 11 219 l 1
 164 219 l 1
 164 240 l 1
175 164 m 0
 168 164 160 163 154 161 c 1
 154 207 l 1
 22 207 l 1
 22 76 l 2
 22 70 25 65 29 61 c 128
 33 57 38 55 44 55 c 2
 106 55 l 1
 112 43 122 31 134 22 c 128
 146 13 160 11 175 11 c 0
 185 11 196 13 205 17 c 128
 214 21 222 27 229 34 c 128
 236 41 241 48 245 57 c 128
 249 66 251 77 251 87 c 256
 251 97 249 108 245 117 c 128
 241 126 236 134 229 141 c 128
 222 148 214 153 205 157 c 128
 196 161 185 164 175 164 c 0
175 32 m 0
 165 32 156 35 147 40 c 128
 138 45 132 51 127 60 c 128
 122 69 120 77 120 87 c 0
 120 97 122 106 127 115 c 128
 132 124 138 130 147 135 c 128
 156 140 165 142 175 142 c 0
 185 142 193 140 202 135 c 128
 211 130 217 124 222 115 c 128
 227 106 230 97 230 87 c 0
 230 77 227 69 222 60 c 128
 217 51 211 45 202 40 c 128
 193 35 185 32 175 32 c 0
180 131 m 1
 164 131 l 1
 164 76 l 1
 204 54 l 1
 212 66 l 1
 180 85 l 1
 180 131 l 1
EndSplineSet
EndChar

StartChar: uni001C
Encoding: 28 28 68
Width: 260
VWidth: 260
Flags: HW
LayerCount: 2
UndoRedoHistory
Layer: 0
Undoes
UndoOperation
Index: 0
Type: 1
WasModified: 1
WasOrder2: 0
Layer: 2
Width: 209
VWidth: 209
LBearingChange: 0
UnicodeEnc: 0
InstructionsLength: 0
EndUndoOperation
UndoOperation
Index: 1
Type: 1
WasModified: 0
WasOrder2: 0
Layer: 2
Width: 512
VWidth: 512
LBearingChange: 0
UnicodeEnc: 0
InstructionsLength: 0
EndUndoOperation
EndUndoes
Redoes
EndRedoes
EndUndoRedoHistory
UndoRedoHistory
Layer: 1
Undoes
UndoOperation
Index: 0
Type: 3
WasModified: 1
WasOrder2: 0
Layer: 2
EndUndoOperation
UndoOperation
Index: 1
Type: 3
WasModified: 0
WasOrder2: 0
Layer: 2
EndUndoOperation
UndoOperation
Index: 2
Type: 3
WasModified: 0
WasOrder2: 0
Layer: 2
EndUndoOperation
EndUndoes
Redoes
EndRedoes
EndUndoRedoHistory
Fore
SplineSet
131 230 m 1
 22 131 l 1
 55 131 l 1
 55 44 l 1
 207 44 l 1
 207 131 l 1
 240 131 l 1
 131 230 l 1
131 87 m 260
 125 87 119 90 115 94 c 132
 111 98 109 103 109 109 c 4
 109 111 110 116 112 121 c 132
 114 126 118 130 120 135 c 132
 122 140 125 143 127 147 c 132
 131 152 131 154 131 154 c 261
 131 154 131 152 135 147 c 132
 137 143 140 140 142 135 c 132
 144 130 148 126 150 121 c 132
 152 116 154 111 154 109 c 4
 154 103 150 98 146 94 c 132
 142 90 137 87 131 87 c 260
EndSplineSet
EndChar

StartChar: uni001D
Encoding: 29 29 69
Width: 260
VWidth: 260
Flags: HW
LayerCount: 2
UndoRedoHistory
Layer: 0
Undoes
UndoOperation
Index: 0
Type: 1
WasModified: 1
WasOrder2: 0
Layer: 2
Width: 209
VWidth: 209
LBearingChange: 0
UnicodeEnc: 0
InstructionsLength: 0
EndUndoOperation
UndoOperation
Index: 1
Type: 1
WasModified: 0
WasOrder2: 0
Layer: 2
Width: 512
VWidth: 512
LBearingChange: 0
UnicodeEnc: 0
InstructionsLength: 0
EndUndoOperation
EndUndoes
Redoes
EndRedoes
EndUndoRedoHistory
UndoRedoHistory
Layer: 1
Undoes
UndoOperation
Index: 0
Type: 3
WasModified: 1
WasOrder2: 0
Layer: 2
EndUndoOperation
UndoOperation
Index: 1
Type: 3
WasModified: 0
WasOrder2: 0
Layer: 2
EndUndoOperation
UndoOperation
Index: 2
Type: 3
WasModified: 0
WasOrder2: 0
Layer: 2
EndUndoOperation
EndUndoes
Redoes
EndRedoes
EndUndoRedoHistory
Fore
SplineSet
142 87 m 5
 142 175 l 5
 164 175 l 5
 164 87 l 5
 142 87 l 5
131 44 m 128
 155 44 175 53 192 70 c 128
 209 87 219 107 219 131 c 128
 219 155 209 175 192 192 c 128
 175 209 155 219 131 219 c 128
 107 219 87 209 70 192 c 128
 53 175 44 155 44 131 c 128
 44 107 53 87 70 70 c 128
 87 53 107 44 131 44 c 128
131 240 m 128
 161 240 188 230 209 209 c 128
 230 188 240 161 240 131 c 128
 240 101 230 75 209 54 c 128
 188 33 161 22 131 22 c 128
 101 22 75 33 54 54 c 128
 33 75 22 101 22 131 c 128
 22 161 33 188 54 209 c 128
 75 230 101 240 131 240 c 128
99 87 m 5
 99 175 l 5
 120 175 l 5
 120 87 l 5
 99 87 l 5
EndSplineSet
EndChar

StartChar: uni001E
Encoding: 30 30 70
Width: 260
VWidth: 260
Flags: HW
LayerCount: 2
UndoRedoHistory
Layer: 0
Undoes
UndoOperation
Index: 0
Type: 1
WasModified: 1
WasOrder2: 0
Layer: 2
Width: 209
VWidth: 209
LBearingChange: 0
UnicodeEnc: 0
InstructionsLength: 0
EndUndoOperation
UndoOperation
Index: 1
Type: 1
WasModified: 0
WasOrder2: 0
Layer: 2
Width: 512
VWidth: 512
LBearingChange: 0
UnicodeEnc: 0
InstructionsLength: 0
EndUndoOperation
EndUndoes
Redoes
EndRedoes
EndUndoRedoHistory
UndoRedoHistory
Layer: 1
Undoes
UndoOperation
Index: 0
Type: 3
WasModified: 1
WasOrder2: 0
Layer: 2
EndUndoOperation
UndoOperation
Index: 1
Type: 3
WasModified: 0
WasOrder2: 0
Layer: 2
EndUndoOperation
UndoOperation
Index: 2
Type: 3
WasModified: 0
WasOrder2: 0
Layer: 2
EndUndoOperation
EndUndoes
Redoes
EndRedoes
EndUndoRedoHistory
Fore
SplineSet
131 109 m 128
 150 109 169 104 189 97 c 128
 209 90 219 77 219 65 c 2
 219 44 l 1
 44 44 l 1
 44 65 l 2
 44 77 54 90 74 97 c 128
 94 104 112 109 131 109 c 128
131 131 m 128
 119 131 109 135 100 144 c 128
 91 153 87 163 87 175 c 128
 87 187 91 197 100 206 c 128
 109 215 119 219 131 219 c 128
 143 219 153 215 162 206 c 128
 171 197 175 187 175 175 c 128
 175 163 171 153 162 144 c 128
 153 135 143 131 131 131 c 128
EndSplineSet
EndChar

StartChar: uni001F
Encoding: 31 31 71
Width: 260
VWidth: 260
Flags: HW
LayerCount: 2
UndoRedoHistory
Layer: 0
Undoes
UndoOperation
Index: 0
Type: 1
WasModified: 1
WasOrder2: 0
Layer: 2
Width: 209
VWidth: 209
LBearingChange: 0
UnicodeEnc: 0
InstructionsLength: 0
EndUndoOperation
UndoOperation
Index: 1
Type: 1
WasModified: 0
WasOrder2: 0
Layer: 2
Width: 512
VWidth: 512
LBearingChange: 0
UnicodeEnc: 0
InstructionsLength: 0
EndUndoOperation
EndUndoes
Redoes
EndRedoes
EndUndoRedoHistory
UndoRedoHistory
Layer: 1
Undoes
UndoOperation
Index: 0
Type: 3
WasModified: 1
WasOrder2: 0
Layer: 2
EndUndoOperation
UndoOperation
Index: 1
Type: 3
WasModified: 0
WasOrder2: 0
Layer: 2
EndUndoOperation
UndoOperation
Index: 2
Type: 3
WasModified: 0
WasOrder2: 0
Layer: 2
EndUndoOperation
EndUndoes
Redoes
EndRedoes
EndUndoRedoHistory
Fore
SplineSet
210 245 m 132
 217 245 224 242 229 237 c 132
 234 232 237 226 237 219 c 4
 237 213 232 207 226 201 c 132
 220 195 216 190 216 185 c 5
 204 185 l 5
 204 190 204 193 206 197 c 132
 208 201 212 204 214 205 c 132
 216 206 218 209 220 211 c 132
 222 213 224 217 224 219 c 4
 224 223 222 225 220 227 c 132
 218 229 214 231 210 231 c 132
 206 231 203 229 201 227 c 132
 199 225 196 223 196 219 c 5
 184 219 l 5
 184 226 186 232 191 237 c 132
 196 242 203 245 210 245 c 132
204 165 m 5
 204 179 l 5
 216 179 l 5
 216 165 l 5
 204 165 l 5
125 120 m 128
 136 120 148 118 160 116 c 128
 172 114 185 107 196 100 c 128
 207 93 212 85 212 76 c 2
 212 44 l 1
 36 44 l 1
 36 76 l 2
 36 85 41 93 52 100 c 128
 63 107 77 114 89 116 c 128
 101 118 114 120 125 120 c 128
125 219 m 128
 137 219 146 215 155 206 c 128
 164 197 167 187 167 175 c 128
 167 163 164 153 155 144 c 128
 146 135 137 131 125 131 c 128
 113 131 103 135 94 144 c 128
 85 153 81 163 81 175 c 128
 81 187 85 197 94 206 c 128
 103 215 113 219 125 219 c 128
125 100 m 128
 110 100 95 97 80 91 c 128
 65 85 57 80 57 76 c 2
 57 65 l 1
 191 65 l 1
 191 76 l 2
 191 80 184 85 169 91 c 128
 154 97 140 100 125 100 c 128
125 197 m 128
 119 197 112 196 107 191 c 128
 102 186 101 181 101 175 c 128
 101 169 102 163 107 159 c 128
 112 155 119 152 125 152 c 128
 131 152 136 155 141 159 c 128
 146 163 147 169 147 175 c 128
 147 181 146 186 141 191 c 128
 136 196 131 197 125 197 c 128
EndSplineSet
EndChar

StartChar: space
Encoding: 32 32 72
Width: 260
VWidth: 260
Flags: HW
LayerCount: 2
UndoRedoHistory
Layer: 0
Undoes
UndoOperation
Index: 0
Type: 1
WasModified: 1
WasOrder2: 0
Layer: 2
Width: 209
VWidth: 209
LBearingChange: 0
UnicodeEnc: 0
InstructionsLength: 0
EndUndoOperation
UndoOperation
Index: 1
Type: 1
WasModified: 0
WasOrder2: 0
Layer: 2
Width: 512
VWidth: 512
LBearingChange: 0
UnicodeEnc: 0
InstructionsLength: 0
EndUndoOperation
EndUndoes
Redoes
EndRedoes
EndUndoRedoHistory
UndoRedoHistory
Layer: 1
Undoes
UndoOperation
Index: 0
Type: 3
WasModified: 1
WasOrder2: 0
Layer: 2
EndUndoOperation
UndoOperation
Index: 1
Type: 3
WasModified: 0
WasOrder2: 0
Layer: 2
EndUndoOperation
UndoOperation
Index: 2
Type: 3
WasModified: 0
WasOrder2: 0
Layer: 2
EndUndoOperation
EndUndoes
Redoes
EndRedoes
EndUndoRedoHistory
Fore
SplineSet
131 196 m 132
 143 196 153 193 162 184 c 132
 171 175 175 166 175 154 c 4
 175 145 170 135 159 125 c 132
 148 115 142 106 142 99 c 5
 120 99 l 5
 120 106 121 113 125 119 c 132
 129 125 132 129 136 131 c 132
 140 133 143 136 147 140 c 132
 151 144 154 149 154 154 c 4
 154 160 151 165 146 169 c 132
 141 173 137 175 131 175 c 132
 125 175 121 173 116 169 c 132
 111 165 109 160 109 154 c 5
 87 154 l 5
 87 166 91 175 100 184 c 132
 109 193 119 196 131 196 c 132
131 44 m 128
 155 44 175 53 192 70 c 128
 209 87 219 107 219 131 c 128
 219 155 209 175 192 192 c 128
 175 209 155 219 131 219 c 128
 107 219 87 209 70 192 c 128
 53 175 44 155 44 131 c 128
 44 107 53 87 70 70 c 128
 87 53 107 44 131 44 c 128
131 240 m 128
 161 240 188 230 209 209 c 128
 230 188 240 161 240 131 c 128
 240 101 230 75 209 54 c 128
 188 33 161 22 131 22 c 128
 101 22 75 33 54 54 c 128
 33 75 22 101 22 131 c 128
 22 161 33 188 54 209 c 128
 75 230 101 240 131 240 c 128
120 65 m 5
 120 87 l 5
 142 87 l 5
 142 65 l 5
 120 65 l 5
EndSplineSet
EndChar

StartChar: exclam
Encoding: 33 33 73
Width: 260
VWidth: 260
Flags: HW
LayerCount: 2
UndoRedoHistory
Layer: 0
Undoes
UndoOperation
Index: 0
Type: 1
WasModified: 1
WasOrder2: 0
Layer: 2
Width: 209
VWidth: 209
LBearingChange: 0
UnicodeEnc: 0
InstructionsLength: 0
EndUndoOperation
UndoOperation
Index: 1
Type: 1
WasModified: 0
WasOrder2: 0
Layer: 2
Width: 512
VWidth: 512
LBearingChange: 0
UnicodeEnc: 0
InstructionsLength: 0
EndUndoOperation
EndUndoes
Redoes
EndRedoes
EndUndoRedoHistory
UndoRedoHistory
Layer: 1
Undoes
UndoOperation
Index: 0
Type: 3
WasModified: 1
WasOrder2: 0
Layer: 2
EndUndoOperation
UndoOperation
Index: 1
Type: 3
WasModified: 0
WasOrder2: 0
Layer: 2
EndUndoOperation
UndoOperation
Index: 2
Type: 3
WasModified: 0
WasOrder2: 0
Layer: 2
EndUndoOperation
EndUndoes
Redoes
EndRedoes
EndUndoRedoHistory
Fore
SplineSet
136 120 m 1
 136 127 143 136 154 146 c 128
 165 156 170 166 170 175 c 0
 170 187 165 197 156 206 c 128
 147 215 137 219 125 219 c 128
 113 219 104 215 95 206 c 128
 86 197 82 187 82 175 c 1
 104 175 l 1
 104 181 106 185 110 190 c 128
 114 195 119 196 125 196 c 128
 131 196 136 195 141 190 c 128
 146 185 147 181 147 175 c 0
 147 170 146 166 142 162 c 128
 138 158 135 154 131 152 c 128
 127 150 124 147 120 141 c 128
 116 135 115 127 115 120 c 1
 136 120 l 1
136 82 m 1
 136 104 l 1
 115 104 l 1
 115 82 l 1
 136 82 l 1
125 240 m 128
 150 240 172 231 191 214 c 128
 210 197 219 172 219 147 c 0
 219 122 211 97 195 75 c 128
 179 53 157 34 131 22 c 1
 131 55 l 1
 125 55 l 2
 100 55 77 65 60 82 c 128
 43 99 32 122 32 147 c 128
 32 172 43 197 60 214 c 128
 77 231 100 240 125 240 c 128
EndSplineSet
EndChar

StartChar: D
Encoding: 68 68 74
Width: 260
VWidth: 260
Flags: HW
LayerCount: 2
UndoRedoHistory
Layer: 0
Undoes
UndoOperation
Index: 0
Type: 1
WasModified: 1
WasOrder2: 0
Layer: 2
Width: 209
VWidth: 209
LBearingChange: 0
UnicodeEnc: 0
InstructionsLength: 0
EndUndoOperation
UndoOperation
Index: 1
Type: 1
WasModified: 0
WasOrder2: 0
Layer: 2
Width: 512
VWidth: 512
LBearingChange: 0
UnicodeEnc: 0
InstructionsLength: 0
EndUndoOperation
EndUndoes
Redoes
EndRedoes
EndUndoRedoHistory
UndoRedoHistory
Layer: 1
Undoes
UndoOperation
Index: 0
Type: 3
WasModified: 1
WasOrder2: 0
Layer: 2
EndUndoOperation
UndoOperation
Index: 1
Type: 3
WasModified: 0
WasOrder2: 0
Layer: 2
EndUndoOperation
UndoOperation
Index: 2
Type: 3
WasModified: 0
WasOrder2: 0
Layer: 2
EndUndoOperation
EndUndoes
Redoes
EndRedoes
EndUndoRedoHistory
Fore
SplineSet
207 230 m 2
 213 230 217 227 222 222 c 128
 227 217 230 213 230 207 c 2
 230 55 l 2
 230 49 227 45 222 40 c 128
 217 35 213 32 207 32 c 2
 55 32 l 2
 49 32 45 35 40 40 c 128
 35 45 32 49 32 55 c 2
 32 207 l 2
 32 213 35 217 40 222 c 128
 45 227 49 230 55 230 c 2
 207 230 l 2
EndSplineSet
EndChar

StartChar: hyphen
Encoding: 45 45 75
Width: 260
VWidth: 260
Flags: HW
LayerCount: 2
UndoRedoHistory
Layer: 0
Undoes
UndoOperation
Index: 0
Type: 1
WasModified: 1
WasOrder2: 0
Layer: 2
Width: 209
VWidth: 209
LBearingChange: 0
UnicodeEnc: 0
InstructionsLength: 0
EndUndoOperation
UndoOperation
Index: 1
Type: 1
WasModified: 1
WasOrder2: 0
Layer: 2
Width: 512
VWidth: 512
LBearingChange: 0
UnicodeEnc: 0
InstructionsLength: 0
EndUndoOperation
EndUndoes
Redoes
EndRedoes
EndUndoRedoHistory
UndoRedoHistory
Layer: 1
Undoes
UndoOperation
Index: 0
Type: 3
WasModified: 1
WasOrder2: 0
Layer: 2
EndUndoOperation
UndoOperation
Index: 1
Type: 3
WasModified: 1
WasOrder2: 0
Layer: 2
EndUndoOperation
UndoOperation
Index: 2
Type: 3
WasModified: 0
WasOrder2: 0
Layer: 2
EndUndoOperation
EndUndoes
Redoes
EndRedoes
EndUndoRedoHistory
Fore
SplineSet
115 134 m 1
 79 134 l 1
 79 97 l 1
 115 97 l 1
 115 134 l 1
124 142 m 5
 124 87 l 5
 69 87 l 5
 69 142 l 5
 124 142 l 5
172 115 m 5
 152 90 l 5
 152 109 l 5
 124 109 l 5
 124 121 l 5
 152 121 l 5
 152 139 l 5
 172 115 l 5
207 55 m 1
 207 175 l 1
 55 175 l 1
 55 55 l 1
 207 55 l 1
175 251 m 1
 196 251 l 1
 196 230 l 1
 207 230 l 2
 213 230 217 227 222 222 c 128
 227 217 230 213 230 207 c 2
 230 55 l 2
 230 49 227 45 222 40 c 128
 217 35 213 32 207 32 c 2
 55 32 l 2
 49 32 43 35 39 40 c 128
 35 45 32 49 32 55 c 2
 32 207 l 2
 32 213 35 217 39 222 c 128
 43 227 49 230 55 230 c 2
 65 230 l 1
 65 251 l 1
 87 251 l 1
 87 230 l 1
 175 230 l 1
 175 251 l 1
207 55 m 1
 207 175 l 1
 55 175 l 1
 55 55 l 1
 207 55 l 1
175 251 m 1
 196 251 l 1
 196 230 l 1
 207 230 l 2
 213 230 217 227 222 222 c 128
 227 217 230 213 230 207 c 2
 230 55 l 2
 230 49 227 45 222 40 c 128
 217 35 213 32 207 32 c 2
 55 32 l 2
 49 32 43 35 39 40 c 128
 35 45 32 49 32 55 c 2
 32 207 l 2
 32 213 35 217 39 222 c 128
 43 227 49 230 55 230 c 2
 65 230 l 1
 65 251 l 1
 87 251 l 1
 87 230 l 1
 175 230 l 1
 175 251 l 1
EndSplineSet
EndChar
